<svg version="1.2" xmlns="http://www.w3.org/2000/svg" viewBox="0 0 4000 4000" width="50" height="50">
  <style>
    .a{fill:#fce599}.b{fill:#ffbb01}.c{fill:#bd533a}.e{fill:#c17921}.f{fill:#34023d}.g{fill:#a30716}.h{fill:#ff1e00}.i{fill:#c58328}.k{fill:#932816}.l{fill:#ffc9a8}.m{fill:#ffa39c}.n{fill:#57ce5f}</style>
  <path class="a"
    d="M2820.9 2077.6c-57-170.2-168-309.5-283.9-417.7-9.9-9.2-20.1-18-30.7-26.4l-144.4-115.4c-28.3-13.3-56.4-26.9-84.4-41-18-9-35.8-18.4-53.6-27.9-17.7-9.6-35.4-19.4-52.9-29.6-17.4-10.2-34.8-20.6-51.8-31.7-4.3-2.8-8.5-5.6-12.7-8.4-2.2-1.5-4.3-2.8-6.4-4.4l-6.4-4.5c-8.5-6.2-16.7-12.8-24.6-19.8-15.8-14-29.9-29.8-42.2-47.2-1.5-2.2-3.1-4.3-4.5-6.5l-4.3-6.8-2.1-3.4-.3-.6c-54.3 26.1-102.7 64.5-140.3 111.5l-28.2 35.2c-25.6 31.9-58.9 57.5-96.2 74.1l-13.7 6.1c-76.8 34.2-141.4 93.6-181.8 167.3l-3 5.4c-10.5 19.1-23 37-37.4 53.3-23.5 26.8-53.5 47.9-88.9 62.7q-3.1 1.3-6.1 2.6l-5.2 2.4q-2.5 1.1-4.9 2.3-2.3 1-4.5 2.2-1.4.6-2.7 1.3l-3.8 2q-.3.1-.5.3-2 1-3.9 2-.8.4-1.6.9l-4.6 2.6q-2.5 1.4-5 3-2.5 1.4-4.9 3-4.6 2.9-9 5.9l-2.2 1.6q-1.1.7-2.2 1.5l-2.2 1.6q-.9.7-1.9 1.4l-3.4 2.6q-2 1.5-4 3.1l-3.8 3.2-3.8 3.2q-.2.1-.3.3-1.8 1.5-3.5 3-3.7 3.4-7.2 6.8-1.8 1.7-3.5 3.5-1.5 1.5-3 3.1-.3.3-.6.7-1.4 1.4-2.8 3-.3.3-.6.7-1.4 1.5-2.7 3-.4.4-.7.8-1.4 1.5-2.7 3.1-.3.3-.5.7-1.3 1.5-2.6 3.1-7.9 9.8-14.8 20.4-4.9 7.5-9.3 15.4-3.1 5.4-5.9 11.1-2.6 5-4.9 10.1l-42.2 110.9s-5.4-1.2-7.8-1.7l-4.9 12.8-38.1-2 26.4-69.4c2.4.5 7.8 1.7 7.8 1.7l42.2-110.9q2.4-5.2 4.9-10.2 2.8-5.6 5.9-11.1 4.4-7.9 9.3-15.3 7-10.7 14.9-20.5 1.2-1.6 2.5-3.1.3-.3.6-.7l2.6-3q.4-.5.7-.9 1.3-1.5 2.7-3 .3-.4.6-.7l2.8-3q.3-.4.7-.7 1.4-1.5 2.9-3l3.5-3.5q3.6-3.5 7.3-6.8 1.7-1.6 3.4-3.1l.3-.3 3.8-3.2q1.9-1.6 3.9-3.2 1.9-1.5 3.9-3.1 1.7-1.3 3.5-2.6.9-.7 1.9-1.4l2.2-1.6q1.1-.8 2.1-1.5 1.1-.8 2.3-1.6 4.4-3 9-5.9 2.4-1.5 4.9-3 2.4-1.5 5-3l4.6-2.6 1.6-.8q1.9-1.1 3.8-2.1.3-.2.6-.3 1.8-1 3.8-2 1.3-.6 2.6-1.3l4.6-2.2q2.4-1.2 4.8-2.3 2.6-1.2 5.3-2.3 3-1.4 6-2.6c35.5-14.8 65.4-35.9 89-62.8 14.3-16.3 26.9-34.2 37.3-53.2l3-5.5c40.4-73.7 105-133.1 181.8-167.2l13.7-6.1c37.4-16.6 70.6-42.3 96.2-74.2l28.2-35.2c37.7-47 86-85.4 140.3-111.5l.4.7 2.1 3.3 4.2 6.8c1.4 2.2 3 4.4 4.6 6.6 12.2 17.3 26.4 33.2 42.1 47.1 7.9 7 16.1 13.7 24.6 19.8l6.4 4.6c2.2 1.5 4.3 2.8 6.4 4.3 4.2 2.8 8.4 5.7 12.7 8.4 17 11.1 34.4 21.6 51.8 31.8 17.5 10.2 35.2 19.9 52.9 29.5 17.8 9.5 35.7 18.9 53.7 27.9 27.9 14.1 56.1 27.8 84.4 41l144.4 115.4c10.5 8.4 20.8 17.2 30.7 26.4 125.8 117.5 245.8 271.6 297.3 462.2q1.9 7.1 3.1 14.2zM1439.8 2130.7c-7.9 4.4-16 8.4-24.3 12-21.8 9.4-44.8 16.1-68.2 20.1-23.4 3.9-47.2 5.3-71 3.7-11.9-.8-23.8-2.3-35.5-4.8l-8.8-2.1c-2.9-.8-5.8-1.5-8.6-2.4-5.8-1.7-11.5-3.6-17.1-5.9-11.3-4.5-22.2-9.9-32.4-16.8-10.1-7-19.5-15.3-27.2-25.2q-2-2.6-3.8-5.3c-6.4 3.9-12.6 7.9-18.3 12.6-3.6 2.6-6.9 5.6-10.3 8.5-1.6 1.5-3.2 3-4.8 4.6l-2.5 2.3c-.7.7-1.5 1.6-2.3 2.4l-4.5 4.8-4.4 5.1c-.7.8-1.4 1.7-2.1 2.5l-2.1 2.7c-1.3 1.8-2.7 3.5-4.1 5.3q-7.8 10.9-14.4 22.6c-4.3 7.9-8.5 16-12 24.4-1.9 4.1-3.4 8.4-5.2 12.6l-2.3 6.5-2.5 6.8-2.7 7.1-3 7c-.5 1.2-1 2.4-1.5 3.5l-1.6 3.4c-1.2 2.3-2.2 4.6-3.4 6.9-2.4 4.4-4.7 9-7.4 13.3-1.3 2.1-2.6 4.4-4 6.5l-4.2 6.3c-5.8 8.4-11.9 16.5-18.7 24-3.3 3.9-6.9 7.5-10.4 11.2l-5.5 5.2-2.8 2.6-2.9 2.5-5.7 5-6 4.8c-2 1.6-4 3.1-6.1 4.6-2 1.4-4.1 3-6.2 4.4-4.2 2.8-8.4 5.7-12.8 8.2l-6.4 3.8-6 3.6c-16 9.4-31 19.7-45.2 31.1l-10.5 8.8-10 9.3-2.6 2.3-2.3 2.5-4.8 4.9-4.8 4.9-4.6 5.1c-6.1 6.7-11.8 13.9-17.4 21l-8.1 11.1c-1.4 1.8-2.5 3.8-3.8 5.7l-3.7 5.7c-9.8 15.4-18.6 31.5-25.9 48.2-7.2 16.8-13.1 34.1-17.8 51.8l-3.2 13.3-3 13.9-6.1 28.2c-4.6 20-12.1 39.5-22.3 57.4-5.1 9-10.8 17.6-17.2 25.7l-4.4 5.6-2 2.7-2 2.7q-2 2.6-3.9 5.4c-1.2 1.8-2.5 3.6-3.6 5.5-4.7 7.4-8.8 15.1-12 22.8-1.6 3.9-3 7.9-4 11.8q-.4 1.2-.7 2.4c-2.6-2.2-5-4.7-7.1-7.3-4.7-5.7-8.1-12.3-9.9-19.4-1-3.5-1.5-7.3-1.7-11-.2-3.8-.1-7.7.4-11.6.5-3.9 1.3-7.8 2.4-11.8 1-3.9 2.5-7.8 4-11.7 3.2-7.8 7.3-15.5 12-22.9 1.2-1.8 2.4-3.7 3.7-5.5q1.8-2.7 3.8-5.4l2-2.7 2.1-2.6 4.4-5.7c6.3-8.1 12.1-16.7 17.1-25.7 10.2-17.9 17.7-37.3 22.3-57.4l6.2-28.1 3-14 3.2-13.3c4.6-17.7 10.6-35 17.8-51.7 7.3-16.8 16-32.9 25.8-48.3l3.7-5.7c1.3-1.9 2.5-3.8 3.9-5.6l8-11.1c5.7-7.2 11.3-14.4 17.5-21.1l4.5-5.1 4.8-4.9 4.8-4.9 2.4-2.4 2.5-2.3 10-9.3 10.5-8.8c14.2-11.5 29.2-21.8 45.3-31.1l5.9-3.6 6.4-3.9c4.4-2.5 8.6-5.4 12.9-8.2 2.1-1.4 4.1-2.9 6.2-4.4 2-1.5 4.1-3 6-4.6l6-4.7 5.8-5 2.8-2.5 2.8-2.7 5.5-5.2c3.5-3.7 7.1-7.2 10.4-11.1 6.8-7.6 13-15.7 18.8-24l4.2-6.4c1.4-2.1 2.6-4.3 3.9-6.5 2.7-4.3 5-8.8 7.5-13.3 1.1-2.2 2.2-4.6 3.3-6.8l1.6-3.5c.6-1.1 1.1-2.3 1.6-3.5l3-6.9 2.6-7.2 2.5-6.8 2.4-6.4c1.7-4.2 3.3-8.5 5.2-12.7 3.5-8.4 7.6-16.4 11.9-24.3q6.7-11.8 14.5-22.7c1.3-1.8 2.7-3.5 4.1-5.3l2-2.6c.7-.9 1.4-1.7 2.2-2.6l4.3-5 4.6-4.9c.8-.8 1.5-1.6 2.3-2.4l2.4-2.3c1.6-1.5 3.2-3.1 4.8-4.6 3.5-2.8 6.7-5.9 10.3-8.5 5.8-4.6 12-8.7 18.3-12.6q1.8 2.8 3.8 5.4c7.7 9.9 17.2 18.1 27.3 25.1 10.2 6.9 21.1 12.4 32.3 16.8 5.6 2.3 11.3 4.2 17.1 6q2.1.6 4.1 1.1l-6.9 18.4z" />
  <path class="b"
    d="M2763.6 2223.3c-17.2 12.9-37.1 25-59.6 36.3-63.5 31.8-137.1 37-204.8 15.3-19.6-6.3-40.2-12.1-61.9-14.7-53.6-6.2-106.6 15.6-141.7 56.6q-29 34.2-51.8 82.5c-5 10.5-11.8 20.1-20.4 27.7-43.8 38.7-87.7 6.8-150.3-6.5-70.3-15.1-142.3 21.1-169.6 87.7-4 9.8-6.8 19.7-7.5 29.5-1.4 18-21.9 27.6-36.4 16.9q-1.6-1.3-3.2-2.4c-61.5-43.4-147.3-21-181.6 46l-8.8 17.2c-30.1 59-99.6 81-155.8 51.4l-21.9-11.5c-55.9-29.4-123.1-40.6-181.3-16.2-127 53.1-165.4 69.6-357.2 105.5q-5.8-.1-11.6 0l.4-1 2.3-6.5 2.7-6.4c.8-2.1 1.7-4.3 2.7-6.4l2.9-6.3c1.9-4.3 4.2-8.4 6.2-12.7l6.7-12.6q3.6-6.2 7-12.7c-14.9 12.4-27.9 27.2-38.6 43.8-1.3 2.1-2.7 4.2-4 6.3l-3.6 6.6-1.8 3.3-1.6 3.4-.7 1.6-2.4 5.2c-2.9 7.1-5.5 14.3-7.5 21.8q-1 3.5-1.7 7c-.7 2.5-1 5-1.5 7.5l-.6 3.8-.5 3.8c-.2 2.5-.6 5-.8 7.6l-.4 7.6c-.2 10.1.4 20.3 1.6 30.2 2.4 20 7.2 39.2 12.5 57.7 5.3 18.6 10.9 36.7 15 54.6q.8 3.4 1.4 6.7c.5 2.3 1 4.5 1.3 6.7.3 2.2.8 4.5 1.1 6.7.2 2.1.6 4.2.7 6.4.4 4.2.4 8.5.3 12.6-.2 4.2-.6 8.4-1.4 12.4-.8 4-1.8 8-3.2 11.8-1.4 3.8-3 7.4-5 10.8-4 6.9-9.2 13-15.3 17.9-12.2 9.7-28.4 14.4-43.2 12.2-7.4-1.1-14.4-3.9-20.3-8.2q-3.8-2.7-7-6.1c-2.9-3.2-5.5-6.7-7.6-10.6-7.4-13.6-9.8-30.7-9-48 .4-8.8 1.6-17.2 3.2-26.8l4.6-28.2c3.1-18.9 6.2-38 8-57.8.6-7.1 1.1-14.2 1.2-21.6q0-4.3-.1-8.7c-.2-5.3-.6-10.6-1.4-16.1-.9-5.5-2.2-11.1-4.5-17-.6-1.5-1.1-2.9-1.9-4.4l-1.2-2.2q-.5-1.1-1.3-2.2c-1.8-3-3.9-5.5-6.1-8-4.6-5-10.8-9.2-17.4-11.7-6.6-2.5-13.2-3.3-19.2-3.4-6 0-11.5.6-16.7 1.4-5.2.8-10.1 1.8-14.8 2.7-4.7 1-9.3 1.9-13.7 2.7-4.4.7-8.7 1.4-12.9 1.8-2.1.2-4.1.2-6.1.3-2 0-4 .1-5.9-.1-2 0-3.8-.4-5.7-.6-1.8-.3-3.6-.6-5.4-1.1-1.7-.4-3.4-1.1-5.1-1.7-.9-.3-1.7-.7-2.5-1-.8-.4-1.7-.8-2.4-1.2l-2.4-1.3c-.8-.5-1.6-1.1-2.3-1.5-1.6-1-3.1-2.2-4.6-3.4l-.8-.6q.3-1.2.7-2.4c1-3.9 2.4-7.9 4-11.8 3.2-7.7 7.3-15.4 12-22.8 1.1-1.9 2.4-3.7 3.6-5.5q1.9-2.8 3.9-5.4l2-2.7 2-2.7 4.4-5.6c6.4-8.1 12.1-16.7 17.2-25.7 10.2-17.9 17.7-37.4 22.3-57.4l6.1-28.2 3-13.9 3.2-13.3c4.7-17.7 10.6-35 17.8-51.8 7.3-16.7 16.1-32.8 25.9-48.2l3.7-5.7c1.3-1.9 2.4-3.9 3.8-5.7l8.1-11.1c5.6-7.1 11.3-14.3 17.4-21l4.6-5.1 4.8-4.9 4.8-4.9 2.3-2.5 2.6-2.3 10-9.3 10.5-8.8c14.2-11.4 29.2-21.7 45.2-31.1l6-3.6 6.4-3.8c4.4-2.5 8.6-5.4 12.8-8.2 2.1-1.4 4.2-3 6.2-4.4 2.1-1.5 4.1-3 6.1-4.6l6-4.8 5.7-5 2.9-2.5 2.8-2.6 5.5-5.2c3.5-3.7 7.1-7.3 10.4-11.2 6.8-7.5 12.9-15.6 18.7-24l4.2-6.3c1.4-2.1 2.7-4.4 4-6.5 2.7-4.3 5-8.9 7.4-13.3 1.2-2.3 2.2-4.6 3.4-6.9l1.6-3.4c.5-1.1 1-2.3 1.5-3.5l3-7 2.7-7.1 2.5-6.8 2.3-6.5c1.8-4.2 3.3-8.5 5.2-12.6 3.5-8.4 7.7-16.5 12-24.4q6.6-11.7 14.4-22.6c1.4-1.8 2.8-3.5 4.1-5.3l2.1-2.7c.7-.8 1.4-1.7 2.1-2.5l4.4-5.1 4.5-4.8c.8-.8 1.6-1.7 2.3-2.4l2.5-2.3c1.6-1.6 3.2-3.1 4.8-4.6 3.4-2.9 6.7-5.9 10.3-8.5 5.7-4.7 11.9-8.7 18.3-12.6q1.8 2.7 3.8 5.3c7.7 9.9 17.1 18.2 27.2 25.2 10.2 6.9 21.1 12.3 32.4 16.8 5.6 2.3 11.3 4.2 17.1 5.9 2.8.9 5.7 1.6 8.6 2.4l8.8 2.1c11.7 2.5 23.6 4 35.5 4.8 23.8 1.6 47.6.2 71-3.7 23.4-4 46.4-10.7 68.2-20.1 8.3-3.6 16.4-7.6 24.3-12l-235.8-12.6 6.9-18.4 4.6 1.2 8.8 2.1c11.7 2.5 23.5 4 35.4 4.9 23.8 1.6 47.7.2 71-3.8 23.4-4 46.4-10.6 68.3-20.1 8.2-3.6 16.3-7.6 24.2-12l-197.7-10.6 4.9-12.8c2.4.5 7.8 1.7 7.8 1.7l42.2-110.9q2.3-5.1 4.9-10.1 2.8-5.7 5.9-11.1 4.4-7.9 9.3-15.4 6.9-10.6 14.8-20.4 1.3-1.6 2.6-3.1.2-.4.5-.7 1.3-1.6 2.7-3.1.3-.4.7-.8 1.3-1.5 2.7-3 .3-.4.6-.7 1.4-1.6 2.8-3 .3-.4.6-.7 1.5-1.6 3-3.1 1.7-1.8 3.5-3.5 3.5-3.4 7.2-6.8 1.7-1.5 3.5-3 .1-.2.3-.3l3.8-3.2 3.8-3.2q2-1.6 4-3.1l3.4-2.6q1-.7 1.9-1.4l2.2-1.6q1.1-.8 2.2-1.5l2.2-1.6q4.4-3 9-5.9 2.4-1.6 4.9-3 2.5-1.6 5-3l4.6-2.6q.8-.5 1.6-.9 1.9-1 3.9-2 .2-.2.5-.3l3.8-2q1.3-.7 2.7-1.3 2.2-1.2 4.5-2.2 2.4-1.2 4.9-2.3l5.2-2.4q3-1.3 6.1-2.6c35.4-14.8 65.4-35.9 88.9-62.7 14.4-16.3 26.9-34.2 37.4-53.3l3-5.4c40.4-73.7 105-133.1 181.8-167.3l13.7-6.1c37.3-16.6 70.6-42.2 96.2-74.1l28.2-35.2c37.6-47 86-85.4 140.3-111.5l.3.6 2.1 3.4 4.3 6.8c1.4 2.2 3 4.3 4.5 6.5 12.3 17.4 26.4 33.2 42.2 47.2 7.9 7 16.1 13.6 24.6 19.8l6.4 4.5c2.1 1.6 4.2 2.9 6.4 4.4 4.2 2.8 8.4 5.6 12.7 8.4 17 11.1 34.4 21.5 51.8 31.7 17.5 10.2 35.2 20 52.9 29.6 17.8 9.5 35.6 18.9 53.6 27.9 28 14.1 56.1 27.7 84.4 41l144.4 115.4c10.6 8.4 20.8 17.2 30.7 26.4 115.9 108.2 226.9 247.5 283.9 417.7 9.4 55.1-12 111.7-57.3 145.7z" />
  <path class="b"
    d="M2767.9 2229.3c-17.2 13-37.1 25.1-59.6 36.3-63.5 31.9-137.1 37.1-204.8 15.3-19.6-6.3-40.2-12.1-61.9-14.6-53.6-6.3-106.6 15.5-141.7 56.6q-29 34.2-51.8 82.5c-5 10.5-11.8 20-20.4 27.7-43.8 38.7-87.7 6.8-150.3-6.6-70.3-15-142.3 21.2-169.6 87.8-4 9.8-6.8 19.7-7.5 29.5-1.4 17.9-21.9 27.6-36.4 16.8q-1.6-1.2-3.2-2.3c-61.4-43.5-147.3-21-181.6 45.9l-8.8 17.3c-30.1 58.9-99.6 81-155.8 51.4l-21.9-11.5c-55.9-29.4-123.1-40.6-181.3-16.3-127 53.2-165.4 69.7-357.1 105.5q-5.9 0-11.7.1l.4-1 2.3-6.5 2.7-6.4c.8-2.1 1.7-4.3 2.7-6.4l2.9-6.4c1.9-4.2 4.2-8.4 6.2-12.7l6.7-12.6q3.6-6.2 7-12.6c-14.9 12.4-27.9 27.2-38.6 43.8-1.3 2.1-2.7 4.2-4 6.3l-3.6 6.5-1.8 3.3-1.5 3.4-.8 1.6-2.4 5.2c-2.9 7.1-5.5 14.4-7.5 21.9q-1 3.5-1.7 7c-.7 2.5-1 5-1.5 7.5l-.6 3.8-.5 3.7c-.2 2.6-.6 5.1-.8 7.6l-.3 7.6c-.3 10.2.3 20.3 1.5 30.3 2.4 19.9 7.2 39.1 12.5 57.7s10.9 36.6 15 54.6q.8 3.3 1.4 6.7c.5 2.2 1 4.5 1.3 6.7.3 2.2.8 4.5 1.1 6.6.2 2.2.6 4.3.7 6.4.4 4.3.4 8.5.3 12.7-.2 4.2-.6 8.3-1.4 12.4-.8 4-1.8 8-3.2 11.7-1.4 3.8-3 7.5-5 10.9-4 6.9-9.2 12.9-15.3 17.8-12.2 9.8-28.4 14.5-43.2 12.2-7.4-1.1-14.4-3.8-20.3-8.1q-3.8-2.7-7-6.1c-2.9-3.2-5.4-6.8-7.6-10.6-7.4-13.6-9.8-30.8-9-48 .4-8.8 1.7-17.2 3.2-26.8l4.6-28.2c3.1-18.9 6.2-38 8-57.8.6-7.1 1.1-14.3 1.2-21.6q0-4.3-.1-8.8c-.2-5.2-.6-10.5-1.4-16-.9-5.5-2.1-11.2-4.5-17-.6-1.5-1.1-3-1.9-4.4l-1.2-2.2q-.5-1.2-1.3-2.2c-1.8-3.1-3.9-5.5-6.1-8-4.6-5-10.8-9.3-17.4-11.7-6.6-2.6-13.2-3.4-19.2-3.4-6-.1-11.5.6-16.7 1.3-5.2.8-10.1 1.8-14.8 2.8-4.7.9-9.3 1.9-13.7 2.6-4.4.8-8.7 1.5-12.9 1.8-2.1.2-4.1.3-6.1.4-2 0-4 0-5.9-.1-2-.1-3.8-.4-5.7-.6-1.8-.4-3.6-.6-5.4-1.2-1.7-.4-3.4-1-5.1-1.6-.9-.3-1.7-.7-2.5-1.1-.8-.3-1.7-.7-2.4-1.2l-2.4-1.3c-.8-.4-1.6-1-2.3-1.5-1.6-.9-3.1-2.1-4.6-3.3q-.4-.3-.8-.7.3-1.1.7-2.3c1-4 2.4-7.9 4-11.8 3.2-7.8 7.3-15.4 12-22.8 1.1-1.9 2.4-3.7 3.6-5.5q1.9-2.8 3.9-5.5l2-2.7 2-2.6 4.4-5.6c6.4-8.2 12.1-16.7 17.2-25.7 10.2-18 17.7-37.4 22.3-57.5l6.1-28.1 3-14 3.2-13.3c4.7-17.6 10.6-34.9 17.8-51.7 7.3-16.7 16.1-32.8 25.9-48.2l3.7-5.7c1.3-2 2.4-3.9 3.8-5.7l8.1-11.1c5.6-7.1 11.3-14.3 17.4-21l4.6-5.2 4.8-4.9 4.8-4.8 2.3-2.5 2.6-2.3 10-9.3 10.5-8.8c14.2-11.5 29.2-21.8 45.2-31.1l6-3.6 6.4-3.8c4.4-2.6 8.6-5.5 12.8-8.2 2.1-1.5 4.2-3 6.2-4.5 2.1-1.5 4.1-3 6.1-4.6l6-4.7 5.7-5 2.9-2.5 2.8-2.6 5.5-5.3c3.5-3.7 7.1-7.2 10.4-11.1 6.8-7.5 12.9-15.7 18.7-24l4.2-6.4c1.4-2.1 2.7-4.3 4-6.5 2.7-4.3 5-8.8 7.4-13.3 1.2-2.2 2.2-4.5 3.4-6.8l1.6-3.4c.5-1.2 1-2.4 1.5-3.5l3-7 2.7-7.2 2.5-6.7 2.3-6.5c1.8-4.2 3.3-8.5 5.2-12.6 3.6-8.4 7.7-16.5 12-24.4q6.6-11.8 14.5-22.6c1.3-1.8 2.7-3.6 4-5.4l2.1-2.6c.7-.9 1.4-1.7 2.1-2.6l4.4-5 4.5-4.9c.8-.8 1.6-1.6 2.3-2.4l2.5-2.3c1.6-1.5 3.2-3.1 4.8-4.6 3.4-2.8 6.7-5.8 10.3-8.5 5.7-4.6 11.9-8.7 18.3-12.6q1.8 2.8 3.8 5.4c7.7 9.9 17.1 18.2 27.2 25.2 10.2 6.8 21.1 12.3 32.4 16.8 5.6 2.2 11.3 4.2 17.1 5.9 2.8.9 5.7 1.6 8.6 2.4l8.8 2c11.7 2.5 23.6 4.1 35.5 4.9 23.8 1.6 47.6.2 71-3.8s46.4-10.6 68.2-20.1c8.3-3.5 16.4-7.5 24.3-12l-235.8-12.6 6.9-18.3 4.6 1.2 8.8 2.1c11.7 2.5 23.5 4 35.4 4.8 23.8 1.6 47.7.2 71-3.7 23.4-4 46.4-10.7 68.3-20.1 8.2-3.6 16.3-7.6 24.2-12l-197.7-10.6 4.9-12.8c2.4.5 7.8 1.7 7.8 1.7l42.2-110.9q2.3-5.2 4.9-10.2 2.8-5.6 5.9-11.1 4.4-7.9 9.3-15.3 6.9-10.7 14.8-20.5l2.6-3q.2-.4.6-.7 1.2-1.6 2.6-3.1.3-.5.7-.8 1.3-1.6 2.7-3 .3-.4.6-.7 1.4-1.6 2.8-3.1l.6-.6q1.5-1.6 3-3.1 1.7-1.8 3.5-3.5 3.5-3.5 7.2-6.8 1.7-1.6 3.5-3.1l.3-.3 3.8-3.2q1.9-1.6 3.8-3.1 2-1.6 4-3.1 1.7-1.4 3.4-2.6 1-.8 1.9-1.4 1.1-.9 2.2-1.6l2.2-1.6q1.1-.8 2.2-1.5 4.4-3.1 9-6 2.5-1.5 4.9-3 2.5-1.5 5-2.9 2.3-1.4 4.6-2.6.8-.5 1.6-.9 1.9-1.1 3.9-2.1.2-.1.5-.3 1.9-1 3.8-1.9 1.3-.7 2.7-1.4 2.2-1.1 4.5-2.2 2.4-1.1 4.9-2.3 2.6-1.1 5.2-2.3 3-1.3 6.1-2.6c35.4-14.8 65.4-35.9 88.9-62.7 14.4-16.3 26.9-34.3 37.4-53.3l3-5.5c40.4-73.7 105-133.1 181.8-167.2l13.7-6.1c37.3-16.6 70.6-42.3 96.2-74.2l28.2-35.2c37.6-47 86-85.4 140.3-111.5l.3.7 2.1 3.4 4.3 6.7c1.4 2.3 3 4.4 4.5 6.6 12.3 17.3 26.4 33.2 42.2 47.2 7.9 6.9 16.1 13.6 24.6 19.7l6.4 4.6c2.1 1.6 4.2 2.9 6.4 4.3 4.2 2.8 8.4 5.7 12.7 8.4 17 11.1 34.4 21.6 51.8 31.8 17.5 10.2 35.2 20 52.9 29.6 17.8 9.4 35.6 18.8 53.6 27.8 28 14.2 56.1 27.8 84.4 41l144.4 115.4c10.6 8.5 20.8 17.2 30.7 26.5 115.9 108.2 226.9 247.4 283.9 417.6 9.4 55.1-12 111.7-57.3 145.7z" />
  <path class="c"
    d="M1862.4 2724.8c-2.3.2-4.6.4-6.9.7-16.3 1.7-32.6 2.8-48.9 3.7l-12.2.4c-4.1.2-8.2.2-12.2.2-8.2.2-16.3-.1-24.4-.2-11.2-.4-22.4-.9-33.5-1.9q3.6-5.6 7.9-11c5.6-6.9 12.2-13.6 19.9-19.1 3.9-2.8 8-5.2 12.4-7.3 4.3-2.1 8.9-3.8 13.6-5.1 4.6-1.2 9.3-2 14-2.4 4.8-.4 9.4-.6 14.1-.2 9.5.5 19.1 2.7 28 6.8 8.9 4.1 17.1 9.9 23.6 16.9q1.8 1.9 3.5 3.8l.2 1.2.4 5.6zM2577.8 2499.1l-.4 5.4c-.9 9.4-2.3 18.9-4 28.5-3.5 19.2-8 38.7-11.8 58.7-2.4 13.1-4.7 26.4-6.1 40-47.7 9.4-86.9 3-130.2-4.1-7.4-1.2-14.9-2.4-22.5-3.6q2.4-1.3 4.8-2.7c7.2-4 14.6-7.7 22.2-11.6l-.2-.8c-17.1.4-34.1 4.7-50.2 10.6-.8.3-1.7.6-2.6.9v.1c-14.1 5.3-27.6 11.9-40.6 18.8q-1.4.7-2.8 1.5c-14.7 7.9-29 16.1-43.5 23.3-14.5 7.2-29.3 13.3-44.3 17.9-15.1 4.4-30.4 7.3-45.9 7.9-15.5.7-31.1-.6-46.5-3.5-32.9-6.7-69.2-10.5-104.5-3.9-17.7 3.1-34.6 8.9-50.3 14.6q-7.4 2.6-14.5 5.1-1.6-6-3-11.9c-.4-1.9-.8-3.8-1.1-5.6l-1.1-5.6c-.6-3.7-1.1-7.4-1.6-11.1l-.5-5.5c-.2-1.8-.4-3.7-.4-5.5l-.2-5.5c0-.9-.1-1.8 0-2.8l.1-2.7q.1-3.2.3-6.5l2-2.6 4-5.2.5-.6.6-.7 1.2-1.4 2.5-2.7c7-7.1 15.2-12.4 23.6-16.3 8.4-4 16.8-6.6 25.1-8.6 14.9-3.7 43.7-14.3 61.1-13.1 13.7 1 32 8.4 41.6 13.4l5.4 2.8c7 3.6 13.9 7.1 20.7 10.2 8.7 3.9 17.3 7.3 26 9.6s17.6 3.5 26.5 3.6c2.3-.1 4.5-.1 6.7-.2 2.3-.2 4.5-.3 6.8-.5 2.3-.4 4.6-.5 6.9-1l3.4-.5c1.1-.2 2.3-.5 3.4-.7 18.1-3.6 35.5-10.6 51.9-20 16.4-9.3 31.9-21 46.9-33.5 15.1-12.5 29.8-26 45.2-39.3 15.5-13.2 31.8-26.3 50.6-36.9q7.1-4 14.6-7.3c5-2.2 10.3-4.2 15.6-5.8 10.7-3.3 22-5.1 33.3-5.4 5.7 0 11.3.3 16.9.9 5.6.7 11.1 1.7 16.4 3.1 5.4 1.2 10.7 2.9 15.8 4.7 2.6 1 5.1 2 7.6 3l4.1 1.8c1.3.6 2.6 1.3 4 2 3.6 2 7.1 4.2 10.5 6.8z" />
  <path
    d="M3331 2101c-9.3 12-19.3 22.7-29.7 32-77.8 69.3-201.5 31.1-227.7-69.8-115-443.6-451.5-705.2-926.4-848.7q-.3-.1-.7-.2c-40-12-82.2-12.7-122.2-2.3l-1.1-2-3.5-6.1c-1.1-2-2.1-4.1-3.1-6.2-43.2-106.7 43.6-193.8 137-191.3 50.3 1.3 101.6 8.6 153.3 21l1 1.7c1.4 2 2.5 4.1 3.7 6.3 1.1 2.1 2.3 4.2 3.4 6.4l3.2 6.5c1.1 2.2 2 4.5 3 6.7 4.1 9.1 7.1 18.5 10.3 28.2.8-17.1-1.4-34.5-6.5-51.2 269.8 70.7 546.5 276.5 728.4 485.4q.1 0 .2.1c77.8 97.2 141.1 197.2 186.6 291.7 49.8 103.3 80.2 201.9 90.8 291.8z"
    style="fill:#f27825" />
  <path class="c"
    d="M2976.5 2486.6q-2.9.1-5.7.1c-74.5.2-146.4 21.4-207.2 60.5q-.6-1.4-1.1-2.8l-2.6-6.5-2.2-6.7-2.2-6.7-1.8-6.9c-1.2-4.5-2.5-9-3.3-13.8-1-4.6-2-9.3-2.8-14l-2.1-14.3c-.4-2.4-.8-4.7-1-7.2l-.7-7.2-.1-.9c8.5-6.3 17.2-11.4 25.7-16.2 9.2-5.1 18.2-9.7 27.1-14.3 17.7-9.1 34.9-18.1 50.6-28.6 15.7-10.4 29.8-22.3 40.8-36.3q2.8-3.5 5.3-7.3.3 4.6.8 9.3c.4 4.8 1.4 9.5 2.2 14.3.3 2.3 1 4.7 1.5 7.1.6 2.3 1.1 4.7 1.8 7 1.5 4.7 2.7 9.4 4.6 14 .9 2.3 1.7 4.6 2.7 6.9l3.2 6.8c4.6 8.9 9.9 17.7 16.6 25.6.9 1.1 1.7 2.1 2.5 3.1l2.7 2.9 2.7 2.9c.9.9 1.8 1.9 2.8 2.8l6 5.4c1 .9 2.1 1.7 3.1 2.5l3.3 2.5 3.2 2.5c1.1.8 2.3 1.5 3.5 2.2 2.3 1.5 4.5 3.1 6.9 4.5l7.4 4 1.7.9.1.1 1.9.9z" />
  <path class="e"
    d="M2495.7 2148.7q1.6 9.7.4 19.4c-.9 6.5-2.9 12.9-5.4 19.1-5.6 12.5-14 24.1-24.1 34.7-20.5 21.1-46.7 38-74.5 51.9-27.9 14-58 24.7-88.8 33.4q-23.2 6.3-47 11c-15.8 3.1-31.8 5.5-47.9 7.6-16.1 2.2-32.2 4.3-48.5 5.6-16.2 1.2-32.5 2-48.9 2.2-32.7.1-65.7-1.8-98.1-7.5-32.2-5.5-64.4-14-93.2-28.3-14.3-7.2-27.5-15.9-38.5-26.3-5.3-5.3-10.1-10.9-14-17-3.7-6.1-6.5-12.5-8.4-19.2-1.6-6.7-2.2-13.7-1.8-20.6.5-6.9 2.2-13.9 4.5-20.7 5.1-13.4 13.2-26.3 23.3-37.6 10.1-11.4 21.9-21.7 34.5-31.1 12.5-9.3 26-17.8 40.1-25.3 28.2-15.2 58.7-26.7 90-35.9 15.7-4.4 31.7-8.3 47.8-11.7 16.1-3.3 32.4-6.1 48.7-8.4 16.5-1.8 33-3.6 49.6-4.5 16.7-.9 33.3-1.4 50-1.3 33.4.6 67 3.5 100 10.5 32.8 6.7 65.3 17.4 93.7 34 14.1 8.2 26.9 18.1 37.1 29.3 4.9 5.6 9.3 11.5 12.6 17.7q4.8 9.3 6.8 19z" />
  <path fill-rule="evenodd" class="f"
    d="M2387.7 2107c.1 4.4.4 8.8.1 13.2-.1 4.4-.7 8.8-1.2 13.1-.3 2.2-.8 4.3-1.2 6.5l-.7 3.2c-.2 1.1-.5 2.1-.8 3.2l-1.8 6.3-2.1 6.1-1.1 3.1-1.3 3-2.6 5.9-2.8 5.8-1.5 2.9-1.6 2.8-3.2 5.6c-1.1 1.8-2.3 3.6-3.5 5.3-9.2 14.4-20.6 27.1-32.7 38.7a285.43 285.43 0 0 1-39.1 31.1c-13.8 9.3-28.2 17.4-43.1 24.6-29.8 14.2-61.2 24.7-93.3 31.5-32.1 6.8-65.1 10.1-98.1 9.2-16.5-.6-33-2-49.3-4.8l-12.3-2.4c-4.1-.9-8.1-1.8-12.1-2.8-8.1-2.1-16.1-4.5-24-7.3-15.8-5.5-31.2-12.5-45.7-21.4-14.4-9.1-27.9-20.1-39.1-33.4-5.6-6.7-10.5-14-14.7-21.6-1-2-1.9-4-2.9-5.9-.4-1-.9-2-1.4-3l-1.2-3.1c-.7-2-1.6-4-2.3-6.1l-1.8-6.3c-.6-2.1-.9-4.3-1.4-6.4-.4-2.2-.9-4.4-1.1-6l-2.1-11.6q-.9-4.8-1.7-9.9c-1.7-4.3-3.1-8.8-4-13.3-1.2-7.6-1.3-15.3-.4-22.8 1.2-7.4 3.3-14.5 6-21.2 5.8-13.3 14-24.8 23.1-35 18.5-20.4 40.7-35.7 63.6-49.1 46.2-26.1 96.3-44.1 147.9-54.8 12.9-2.8 25.9-5 38.9-6.9 13.1-1.8 26.2-3.1 39.4-3.9 13.2-.8 26.4-1.1 39.6-.9 13.2.3 26.5 1 39.7 2.5 13.3 1.5 26.5 3.7 39.6 6.8 13.1 3.1 26.1 7 38.8 12.6 12.7 5.5 25 12.9 35.9 22.8 5.3 5.2 10.2 11 14.3 17.6 4 6.6 7 13.9 9 21.6.6 3.2 1.1 6.4 1.3 9.7 1.1 2.6 2.2 5.3 3.2 8q2.1 5.8 3.8 11.7c.6 2 1.2 4 1.7 6.1.6 2.1 1 4.3 1.4 6.4l.7 3.2.4 3.3c.3 2.2.6 4.3.8 6.5zm-510.9 78.8c8.3 7.6 18.4 13.8 29.3 18.7 21.9 9.8 46.5 14.7 71.2 17.5 24.8 2.7 50 2.5 75.1.8 12.5-1 25-2.5 37.5-4.3 12.5-1.9 24.8-4.3 37.2-6.9 12.3-2.4 24.7-5.2 36.8-8.4q18.3-5 36.1-11.1c23.7-8.4 46.9-18.4 68.4-30.9 21.5-12.4 41.7-27 57.6-44.7 7.9-8.8 14.4-18.5 18.8-28.5 2-5.1 3.6-10.2 4.3-15.3q1-7.7-.1-15.3-1.4-7.6-5-14.6c-2.5-4.7-5.8-9.1-9.5-13.3-7.7-8.3-17.4-15.4-28.2-21.2-21.6-11.5-46.4-18.3-71.5-21.9-25.2-3.8-50.9-4.3-76.5-3-12.8.7-25.6 1.9-38.3 3.5-12.8 1.6-25.4 3.9-38.1 6.2-12.6 2.6-25.1 5.6-37.5 9.1-12.3 3.5-24.6 7.4-36.7 11.7-24 8.8-47.6 19.4-69.3 32.9-10.9 6.6-21.3 14-31 22-9.8 8-18.8 16.7-26.7 26.2-7.9 9.5-14.2 20-18.3 30.8-1.8 5.5-3.1 11-3.6 16.5-.4 5.5 0 10.9 1.2 16.1 1.4 5.2 3.5 10.1 6.3 14.7 2.9 4.6 6.5 8.8 10.5 12.7zm487.5-74.4c-4.7 8.7-10.2 16.7-16.4 24-9.1 10.8-19.3 20.4-30 29.1-10.8 8.6-22 16.4-33.6 23.5-46.6 28.1-97.8 46.4-150.1 58.1-52.7 10-107 13.3-160.7 5.5-13.5-2-26.8-4.8-40-8.6-13.2-3.9-26.2-8.7-38.8-15.2-6.5-3.3-12.9-7.2-19-11.7 1.2 2.2 2.4 4.3 3.6 6.3 4 5.8 8.4 11.4 13.4 16.4 9.9 10.2 21.8 18.6 34.6 25.5 12.9 6.9 26.6 12.4 40.8 16.6 28.5 8.3 58.6 12.2 88.7 12.3 15 .2 30.1-.6 45.2-2.2 15-1.6 29.9-4 44.8-7.1 29.6-6.2 58.5-15.6 85.9-28 27.4-12.5 53.3-28.2 75.7-47.6 2.9-2.3 5.5-4.9 8.2-7.4 2.7-2.5 5.2-5.2 7.8-7.8 5-5.4 9.8-10.9 14.1-16.8 4.5-5.7 8.2-11.9 11.8-18.1l2.4-4.7 1.2-2.4 1.1-2.5 2.1-4.9 1.8-5 .9-2.4.7-2.6c.4-1.7 1-3.4 1.4-5.1.7-3.4 1.5-6.8 1.8-10.3.4-2.3.5-4.6.6-6.9z" />
  <path class="g"
    d="M2364.3 2111.4c-.1 2.3-.2 4.6-.6 6.9-.3 3.5-1.1 6.9-1.8 10.3-.4 1.7-1 3.4-1.4 5.1l-.7 2.6-.9 2.4-1.8 5-2.1 4.9-1.1 2.5-1.2 2.4-2.4 4.7c-3.6 6.2-7.3 12.4-11.8 18.1-4.3 5.9-9.2 11.4-14.1 16.8-2.6 2.6-5.1 5.3-7.8 7.8s-5.3 5.1-8.2 7.5c-22.4 19.3-48.3 35-75.6 47.5-27.5 12.4-56.4 21.8-86 28-14.9 3.1-29.8 5.5-44.8 7.1-15.1 1.6-30.2 2.4-45.2 2.2-30.1-.1-60.2-4-88.7-12.3-14.2-4.2-27.9-9.7-40.8-16.6-12.8-6.9-24.7-15.3-34.6-25.5-5-5-9.4-10.6-13.4-16.4-1.3-2-2.4-4.1-3.6-6.3 6.1 4.5 12.5 8.4 19 11.7 12.6 6.5 25.6 11.3 38.8 15.2 13.2 3.8 26.5 6.6 40 8.6 53.7 7.8 108 4.5 160.7-5.5 52.3-11.7 103.5-30 150.1-58.1 11.6-7.1 22.8-14.9 33.6-23.5 10.7-8.7 20.9-18.3 30-29.1 6.2-7.3 11.7-15.3 16.4-24z" />
  <path class="h"
    d="M2349 2057.4q1.1 7.6.1 15.3c-.7 5.1-2.3 10.2-4.3 15.3-4.4 10-10.9 19.7-18.8 28.5-15.9 17.7-36.1 32.3-57.6 44.7-21.5 12.5-44.7 22.5-68.4 30.9q-17.8 6.1-36.1 11.1c-12.2 3.2-24.5 6-36.8 8.4-12.4 2.6-24.7 5-37.2 6.9-12.5 1.8-25 3.3-37.5 4.2-25.1 1.8-50.4 2-75.1-.7-24.7-2.8-49.3-7.7-71.2-17.5-10.9-4.9-21-11.1-29.3-18.7-4-3.9-7.6-8.1-10.5-12.7-2.8-4.6-4.9-9.5-6.3-14.7-1.2-5.2-1.6-10.6-1.2-16.1.5-5.5 1.8-11 3.6-16.5 4.1-10.8 10.4-21.4 18.3-30.8 7.9-9.5 16.9-18.2 26.7-26.2 9.7-8 20.1-15.4 31-22 21.7-13.4 45.2-24.1 69.3-32.9 12.1-4.3 24.4-8.2 36.7-11.7 12.4-3.5 24.9-6.5 37.5-9.1 12.7-2.3 25.3-4.6 38.1-6.2 12.7-1.6 25.5-2.8 38.3-3.5 25.6-1.3 51.3-.8 76.5 3 25.1 3.6 49.9 10.4 71.5 21.9 10.8 5.8 20.5 12.9 28.2 21.2 3.7 4.2 7 8.6 9.5 13.3q3.6 7.1 5 14.6z" />
  <path class="e"
    d="M1616.4 2176.4q1.6 9.7.4 19.4c-.9 6.5-2.9 12.9-5.4 19.1-5.6 12.4-14 24.1-24.1 34.7-20.4 21.1-46.7 38-74.5 51.9-27.9 14-58 24.7-88.8 33.4q-23.2 6.3-46.9 11c-15.9 3.1-31.9 5.5-48 7.6-16.1 2.2-32.2 4.3-48.5 5.6-16.2 1.2-32.5 2-48.9 2.1-32.7.2-65.6-1.7-98-7.4-32.3-5.6-64.5-14-93.3-28.3-14.3-7.2-27.5-15.9-38.5-26.3-5.3-5.3-10.1-10.9-14-17-3.7-6.1-6.5-12.5-8.4-19.2-1.6-6.7-2.2-13.7-1.8-20.6.5-7 2.2-13.9 4.5-20.7 5.1-13.4 13.2-26.3 23.4-37.6 10.1-11.4 21.8-21.7 34.4-31.1 12.6-9.3 26-17.8 40.2-25.3 28.1-15.2 58.6-26.7 89.9-35.9 15.7-4.4 31.7-8.3 47.8-11.7 16.1-3.3 32.4-6.1 48.8-8.4 16.4-1.8 32.9-3.6 49.5-4.5 16.7-.9 33.3-1.4 50-1.3 33.4.6 67 3.5 100 10.5 32.8 6.7 65.3 17.4 93.7 34 14.2 8.2 27 18.1 37.1 29.3 5 5.6 9.3 11.5 12.7 17.7q4.7 9.3 6.7 19z" />
  <path fill-rule="evenodd" class="f"
    d="M1500 2127.4c0 4.4.1 8.8-.4 13.2-.3 4.4-1.1 8.7-1.8 13-.4 2.2-.9 4.3-1.4 6.4l-.8 3.2c-.3 1.1-.6 2.1-1 3.1l-2 6.3-2.4 6-1.2 3.1-1.4 2.9-2.8 5.8-3.1 5.7-1.6 2.8-1.7 2.8-3.4 5.4c-1.2 1.8-2.4 3.5-3.6 5.2-9.9 14-21.7 26.2-34.3 37.3-12.6 11.1-26.1 20.9-40.3 29.6-14.1 8.7-28.9 16.2-44.1 22.8-30.3 13.1-62.1 22.3-94.5 27.8-32.3 5.5-65.4 7.4-98.3 5.2-16.5-1.1-32.9-3.3-49.2-6.7l-12.1-2.9c-4-1-8-2.1-12-3.2-8-2.5-15.9-5.1-23.7-8.2-15.5-6.3-30.7-13.8-44.8-23.4-14-9.6-27-21.1-37.7-34.8q-.2-.1-.2-.3-2.7-3.5-5.1-7.1c-3.1-4.8-6-9.7-8.5-14.8-.8-1.7-1.5-3.4-2.3-5.1l-.4-1c-.4-1-.9-1.9-1.3-3l-1-3.1c-.7-2.1-1.5-4.1-2.1-6.2l-.1-.7-1.4-5.7c-.6-2.1-.8-4.3-1.2-6.5-.3-2.1-.7-4.4-.9-6l-1.6-11.6q-.7-4.9-1.3-9.9c-1.5-4.5-2.7-9-3.4-13.6-1-7.6-.8-15.3.5-22.7 1.4-7.4 3.8-14.4 6.8-21 6.3-13 15-24.2 24.5-34 19.2-19.6 42-34.1 65.4-46.5 27.7-14.3 56.6-25.6 86.2-34.3v-.1q23.5-6.8 47.5-11.5 6.7-1.3 13.4-2.5 1.5-.2 2.9-.5c9.2-1.6 18.5-3 27.7-4.1q5.8-.7 11.5-1.3 19.7-1.9 39.5-2.3c13.2-.2 26.4-.1 39.6.7 13.2.8 26.4 2 39.6 4.1 13.2 2 26.3 4.7 39.2 8.3 13 3.6 25.9 8.1 38.4 14.2 12.4 6 24.4 13.8 34.9 24.2 5.1 5.4 9.8 11.4 13.6 18.1 3.7 6.8 6.5 14.2 8.1 22 .5 3.2.8 6.5 1 9.7q1.5 4 2.8 8.1 1.9 5.9 3.4 11.9c.5 2 1 4 1.4 6.2.5 2 .8 4.2 1.2 6.4l.5 3.2.3 3.3c.2 2.2.4 4.4.5 6.6zm-529.3 30.3c1.1 5.2 3.1 10.2 5.7 15 2.7 4.6 6.1 9 10 13q2.7 2.7 5.6 5.1c6.8 5.7 14.6 10.6 22.9 14.8l2.2 1c20.9 10 44.5 15.7 68.2 19.3 24.7 3.7 49.9 4.5 75 3.8 12.6-.5 25.2-1.5 37.7-2.8 12.5-1.4 25-3.3 37.4-5.4 12.5-2 24.9-4.2 37.2-7 12.3-2.8 24.4-6 36.5-9.6 24-7.5 47.5-16.5 69.6-28.1 21.9-11.5 42.7-25.4 59.3-42.4 8.2-8.5 15.1-17.9 19.9-27.8 2.2-4.9 4-10 5-15.1.8-5.1 1-10.2.4-15.2q-1.1-7.6-4.4-14.9c-2.3-4.7-5.4-9.3-9-13.6-7.3-8.6-16.8-16.1-27.3-22.3-21.1-12.4-45.6-20.1-70.6-24.7-24.9-4.8-50.7-6.3-76.3-6.1-12.8.2-25.6.9-38.4 2-12.8 1.1-25.6 2.8-38.3 4.6-8.9 1.5-17.8 3.2-26.7 5.1q-5.5 1.2-11.1 2.5-6.7 1.7-13.5 3.4-11.9 3.2-23.6 6.9l-6.2 2q-4.3 1.4-8.4 2.9c-19.4 7-38.2 15.2-56 25.2-11.2 6.2-21.9 13.1-31.9 20.7s-19.5 16-27.7 25.2c-8.3 9.1-15 19.3-19.5 30-2 5.4-3.6 10.9-4.3 16.4-.6 5.4-.4 10.9.6 16.1zm505.8-26.9c-5 8.5-10.9 16.3-17.4 23.4-9.5 10.4-20.1 19.5-31.2 27.8-11 8.2-22.6 15.5-34.5 22.1-47.6 26.3-99.5 42.6-152.2 52.1-53.1 8-107.4 9-160.9-.9-13.3-2.5-26.5-5.8-39.6-10.2-12.9-4.3-25.7-9.7-37.9-16.5q-.1-.1-.2-.1c-6.4-3.7-12.6-7.8-18.6-12.5 1.1 2.2 2.3 4.3 3.5 6.4 2.9 4.8 6.1 9.3 9.8 13.6q1.4 1.7 2.9 3.4c9.5 10.5 21 19.4 33.5 26.8 12.6 7.3 26.1 13.4 40.1 18.2 28.2 9.5 58 14.5 88.1 15.9 15.1.7 30.2.5 45.3-.5 15-.9 30.1-2.8 45-5.3 29.9-5 59.2-13.2 87-24.6 27.9-11.3 54.4-26 77.6-44.4 3-2.2 5.7-4.8 8.5-7.2 2.8-2.4 5.4-4.9 8.1-7.4 5.1-5.3 10.2-10.6 14.7-16.2 4.7-5.6 8.7-11.6 12.5-17.6l2.6-4.7 1.3-2.3 1.2-2.5 2.3-4.7 1.9-5c.4-.8.7-1.6 1.1-2.4l.8-2.5c.5-1.7 1.1-3.4 1.6-5.1.8-3.4 1.8-6.7 2.2-10.2.5-2.3.7-4.6.9-6.9z" />
  <path class="g"
    d="M1476.5 2130.8c-.2 2.3-.4 4.6-.9 6.9-.4 3.5-1.4 6.8-2.2 10.2-.5 1.7-1.1 3.4-1.6 5.1l-.8 2.5c-.4.8-.7 1.6-1 2.4l-2 4.9-2.3 4.9-1.2 2.4-1.3 2.3-2.6 4.7c-3.8 6-7.8 12-12.5 17.6-4.5 5.6-9.6 10.9-14.7 16.2-2.7 2.5-5.3 5-8.1 7.5-2.9 2.3-5.5 4.8-8.5 7.1-23.2 18.4-49.7 33-77.5 44.4-27.9 11.4-57.2 19.6-87.1 24.6-14.9 2.5-29.9 4.4-45 5.3-15.1 1-30.2 1.2-45.3.5-30.1-1.4-59.9-6.4-88.1-15.9-14-4.8-27.5-10.8-40.1-18.2-12.5-7.4-24-16.3-33.5-26.9-4.8-5.2-9-10.9-12.7-16.9-1.2-2.1-2.4-4.2-3.5-6.4 6 4.7 12.2 8.8 18.6 12.5 12.3 6.9 25.1 12.2 38.1 16.6 13.1 4.4 26.3 7.7 39.6 10.2 53.5 9.9 107.8 8.8 160.9.9 52.7-9.5 104.6-25.8 152.2-52.1 11.9-6.6 23.5-13.9 34.5-22.1 11.1-8.2 21.7-17.4 31.3-27.9 6.4-7 12.3-14.7 17.3-23.3z" />
  <path class="h"
    d="M1463.3 2076.2q.9 7.7-.4 15.3c-1 5.1-2.8 10.2-5 15.1-4.8 9.9-11.7 19.3-19.9 27.8-16.6 17-37.4 30.9-59.4 42.4-22 11.6-45.5 20.6-69.5 28.1q-18.1 5.4-36.5 9.6c-12.3 2.8-24.7 5.1-37.2 7-12.4 2.1-24.9 4-37.4 5.4-12.5 1.3-25.1 2.3-37.7 2.8-25.1.7-50.3-.1-75-3.8-24.5-3.7-48.9-9.7-70.4-20.3-10.7-5.4-20.5-12-28.5-19.9-3.9-4-7.3-8.4-10.1-13-2.6-4.8-4.5-9.8-5.6-15-1-5.2-1.2-10.7-.6-16.1.7-5.5 2.3-11 4.3-16.4 4.5-10.6 11.2-20.9 19.5-30 8.2-9.2 17.7-17.6 27.7-25.2 10.1-7.6 20.7-14.5 31.9-20.7 22.2-12.6 46.1-22.2 70.6-30.1 12.2-3.9 24.6-7.2 37.1-10.3 12.5-2.9 25.1-5.4 37.8-7.6 12.7-1.8 25.5-3.5 38.3-4.6 12.8-1.1 25.6-1.8 38.4-2 25.6-.2 51.3 1.3 76.3 6.1 25 4.6 49.5 12.3 70.6 24.7 10.6 6.2 20 13.7 27.3 22.3 3.6 4.3 6.7 8.9 9 13.6q3.3 7.3 4.4 14.8z" />
  <path class="e"
    d="M2268.5 1524.4q1.6 9.7.4 19.4c-.9 6.4-2.9 12.8-5.5 19.1-5.5 12.4-13.9 24.1-24 34.6-20.5 21.2-46.7 38.1-74.5 52-27.9 14-58 24.7-88.8 33.4q-23.2 6.3-47 10.9c-15.8 3.1-31.9 5.6-48 7.6-16 2.3-32.1 4.3-48.4 5.6-16.2 1.3-32.6 2-48.9 2.2-32.8.1-65.7-1.8-98.1-7.4-32.2-5.6-64.4-14-93.2-28.4-14.3-7.1-27.6-15.9-38.5-26.2-5.4-5.3-10.2-11-14-17-3.7-6.1-6.5-12.6-8.4-19.3-1.6-6.7-2.3-13.6-1.9-20.5.6-7 2.2-13.9 4.6-20.7 5.1-13.5 13.2-26.3 23.3-37.6 10.1-11.4 21.9-21.8 34.4-31.1 12.6-9.3 26.1-17.8 40.2-25.3 28.2-15.2 58.7-26.7 90-35.9 15.7-4.5 31.7-8.3 47.7-11.7 16.1-3.4 32.4-6.1 48.8-8.4 16.5-1.8 33-3.6 49.6-4.6 16.6-.9 33.3-1.4 50-1.2 33.4.6 67 3.5 99.9 10.4 32.9 6.8 65.4 17.5 93.8 34 14.1 8.3 26.9 18.2 37.1 29.3 4.9 5.7 9.3 11.6 12.6 17.7q4.8 9.4 6.8 19.1z" />
  <path fill-rule="evenodd" class="f"
    d="m3318.1 2372.6-.4.7c-27.8 47.8-72.4 83.9-132.9 107-56.3 21.7-128.3 32.8-213.9 33.1-70.6.2-138.6 20.6-195.7 58.1l6.2 11.8 3.6 6.8 3.5 7.1 1.8 3.6 1.6 3.7 3.2 7.5 2.7 7.8 1.4 3.9c.5 1.3.7 2.6 1.1 3.9 1.4 5.4 3 10.6 3.8 16 1 5.3 2.1 10.6 2.5 15.9l.9 8 .4 4 .2 4.3c.2 5.8.1 11.7-.7 17.5-.7 5.9-1.9 11.7-3.6 17.3-3.4 11.4-8.9 22-15.7 31.5-3.5 4.7-7.3 9.1-11.3 13.2q-6.2 6.1-13 11.3c-9 6.9-19 12.5-29.3 16.9-20.7 8.7-43.2 12.6-65.7 11.2-11.2-.8-22.4-2.9-33.3-6.5-10.8-3.7-21.2-8.9-30.6-15.7-9.4-6.7-17.8-15-24.6-24.3-6.9-9.2-12.3-19.4-16.3-29.9-.5-1.3-1-2.6-1.4-3.9l-1.3-4c-1-2.7-1.6-5.4-2.3-8-.7-2.7-1.2-5.4-1.8-8.1-.5-2.7-1.1-5.4-1.5-8.1-1.3-9.1-1.8-18.1-1.8-27-8.7 1.5-17 2.5-25.2 3.1-38.6 3.1-72.6-2.5-107.8-8.3-17.3-2.8-35.1-5.7-54-7.7-7.3 4.7-14.7 9.4-22.1 14.1-14.1 8.9-28.6 17.5-43.7 25.6-15.1 8.1-31 15.2-47.7 20.8-16.8 5.4-34.3 9.2-52.1 10.4-4.5.2-8.9.6-13.4.5h-6.6c-2.3-.1-4.5-.2-6.7-.3-2.2-.2-4.4-.3-6.6-.5l-6.7-.7c-4.4-.4-8.7-1.2-13.1-1.9l-12.2-2-5.9-.9c-2-.4-4-.7-5.9-.9l-11.9-1.2c-2-.3-3.9-.4-5.9-.4l-5.9-.3c-15.7-.6-31.1.3-46.2 3.4-3.8.8-7.6 1.5-11.3 2.6l-5.7 1.4-5.6 1.8c-1.9.6-3.8 1.1-5.7 1.8l-5.7 1.9c-3.8 1.3-7.7 2.8-11.5 4.2l-11.9 4.3-3.3 1.1q.4.9.8 1.7c6.4 13.3 15.3 27.1 22.3 43 3.5 7.9 6.5 16.4 8.5 25.3.4 2.3.9 4.5 1.3 6.8l.8 6.9c.3 4.6.5 9.2.2 13.8-.2 4.6-.7 9.3-1.6 13.9-.9 4.6-2.1 9.1-3.8 13.6-3.1 8.9-7.7 17.2-13.4 24.8-11.5 14.9-27.3 26.2-45 32.2-8.8 3.1-18.2 4.8-27.7 5.1-9.5.2-19.2-1.1-28.4-4.3-9.3-3.2-18.1-8.2-25.4-14.8-3.7-3.3-7-7-9.9-10.8-3-3.9-5.5-8.1-7.7-12.3-4.3-8.5-7.1-17.4-8.8-26.3-.5-2.2-.8-4.4-1.2-6.7-.2-2.2-.5-4.4-.7-6.6l-.5-6.6-.1-6.6c0-8.9 1-17.8 2.3-26.1 1.3-8.3 2.9-16 4.1-23.6.6-3.8 1.1-7.5 1.5-11.3.2-2.2.5-4.4.7-6.5q-1.7.1-3.4.3c-33.7 3.5-67.7 4.5-101.9 3.2-17-1-34.1-2.4-51.1-4.9q-.7-.1-1.4-.3-1.8 3.5-3.7 7c-4 7.4-8.5 14.8-13.9 21.9-5.3 7.1-11.6 14-19.3 19.8-3.8 2.8-7.9 5.4-12.3 7.6-4.4 2.1-9 3.9-13.8 5.1-4.7 1.2-9.5 1.9-14.3 2.3l-3.5.1q-.9.1-1.8.1l-1.7-.1-6.8-.2c-9.1-.8-18.2-2.6-26.8-5.5-8.6-3.1-16.7-7.1-24.2-11.6-7.5-4.6-14.3-9.8-20.8-15l-4.8-3.9-4.7-4.1q-4.6-4-9.1-8.1c-5.9-5.4-11.7-10.7-17.5-15.9-5.9-5.2-11.7-10.2-17.7-14.9l-2.8-2.2c-58.2 22.5-119.2 33.5-181.2 38.4-74.2 5.8-149.9 2.8-224.4-.2-51.2-2-100.4-4-148.2-3.2-.4 1.7-.7 3.3-1 5l-1.1 6.6c-.2 1.1-.3 2.2-.4 3.3l-.4 3.3-.4 3.3-.2 3.4c-.3 4.4-.4 8.9-.5 13.3q.1 13.5 1.9 26.9c2.4 18 7.1 35.8 12.4 53.9 5.4 18.1 11.4 36.4 16 55.7q.9 3.5 1.7 7.2c.5 2.5 1.1 4.9 1.5 7.3.4 2.5.9 5 1.3 7.5.3 2.6.7 5.2.9 7.8.6 5.3.7 10.6.6 15.9-.2 5.4-.6 10.8-1.6 16.1-1 5.4-2.3 10.7-4.1 15.9-1.8 5.2-4.1 10.3-6.8 15.1-5.4 9.8-12.8 18.5-21.5 25.7-17.4 14.2-40.7 21.6-63.7 18.5-11.6-1.5-22.9-5.8-32.5-12.6-9.8-6.7-17.5-15.8-23.1-25.7-2.9-5-5.1-10.1-6.9-15.4-1.9-5.2-3.2-10.5-4.1-15.9-2-10.6-2.6-21.2-2.1-31.6.3-10.3 1.9-20.8 3.3-30.1l4.5-28.3c2.9-18.8 5.7-37.4 7.2-55.7.8-9.1 1.2-18.1.9-26.8-.2-4.3-.6-8.5-1.2-12.4-.7-3.9-1.6-7.6-2.8-10.6-.6-1.5-1.3-2.9-2-4-.6-1-1.7-2.2-2.6-3.3-2-2.1-3.9-3.2-6.2-4.1-2.4-.9-5.3-1.4-8.9-1.4-3.5 0-7.5.5-11.7 1.1-4.2.7-8.7 1.6-13.4 2.6-4.6 1-9.4 2-14.4 2.9-4.9.9-10.1 1.8-15.4 2.3-2.7.3-5.4.4-8.1.5-2.9 0-5.6.1-8.5-.1-2.8-.1-5.7-.5-8.5-.8-2.9-.5-5.8-.9-8.6-1.8-2.9-.6-5.7-1.6-8.5-2.6-1.4-.5-2.7-1.2-4.1-1.8-1.4-.6-2.7-1.2-4-1.9l-3.9-2.1c-1.3-.8-2.5-1.6-3.7-2.4-2.5-1.6-4.7-3.3-7-5.1-4.4-3.6-8.6-7.7-12.3-12.2-7.4-9.1-13-19.9-16-31.2-1.5-5.7-2.3-11.5-2.7-17.2-.3-5.7-.1-11.5.6-17 .7-5.6 1.7-11 3.2-16.3 1.4-5.3 3.2-10.3 5.2-15.3 4-9.9 9-19.1 14.5-27.8 1.3-2.2 2.8-4.3 4.2-6.4 1.4-2.2 2.9-4.3 4.4-6.3l2.3-3.1 2.3-3 4.4-5.6c5.4-7 10.3-14.3 14.6-21.9 8.6-15.3 14.9-31.9 18.8-49l6-27.8 3.1-14 3.5-14.5c5.1-19.3 11.6-38.2 19.5-56.4 8-18.3 17.6-35.8 28.3-52.6l4.1-6.2c1.4-2.1 2.7-4.2 4.2-6.2l8.8-12.1c6.2-7.8 12.4-15.6 19.1-22.9 13.4-14.8 27.7-28.7 43.4-41.1 15.5-12.4 32.2-23.6 49.2-33.3l12.2-7.3c3.9-2.2 7.6-4.7 11.3-7.1 1.9-1.3 3.7-2.6 5.5-3.9 1.8-1.3 3.6-2.6 5.4-4l5.2-4.1 5.1-4.4 2.6-2.1 2.4-2.3 4.9-4.6c2.6-2.8 5.4-5.5 7.9-8.3q.6-.7 1.3-1.4c6-6.6 11.4-13.7 16.6-21l3.8-5.5c1.3-1.9 2.3-3.8 3.5-5.7q1.3-2 2.5-4.1c6.8 5.7 14.6 10.6 22.9 14.8l2.2 1q-1 1.8-2.2 3.6c-1.3 2.2-2.5 4.4-3.9 6.5l-4.2 6.4q-2 2.8-4 5.5-.1-.1-.2-.1c-6.4-3.7-12.6-7.8-18.6-12.5 1.1 2.2 2.3 4.3 3.5 6.4 2.9 4.8 6.1 9.3 9.8 13.6q-4.4 5.7-9.3 11.1c-2.5 2.9-5.2 5.7-7.8 8.4q-1.3 1.4-2.6 2.7l-5.5 5.2-2.8 2.7-2.8 2.5-5.8 5-6 4.7c-1.9 1.6-4 3.1-6 4.6-2.1 1.5-4.1 3-6.2 4.4-4.3 2.8-8.5 5.7-12.9 8.2l-6.4 3.9-5.9 3.6c-16.1 9.3-31.1 19.6-45.3 31.1l-10.5 8.8-10 9.3-2.5 2.3-2.4 2.4-4.8 4.9-4.8 4.9-4.5 5.1c-6.2 6.7-11.8 13.9-17.5 21.1l-8 11.1c-1.4 1.8-2.6 3.7-3.9 5.6l-3.7 5.7c-9.8 15.4-18.5 31.5-25.8 48.3-7.2 16.7-13.2 34-17.8 51.7l-3.2 13.3-3 14-6.2 28.1c-4.6 20.1-12.1 39.5-22.3 57.4-5 9-10.8 17.6-17.1 25.7l-4.4 5.7-2.1 2.6-2 2.7q-2 2.7-3.8 5.4c-1.3 1.8-2.5 3.7-3.7 5.5-4.7 7.4-8.8 15.1-12 22.9-1.5 3.9-3 7.8-4 11.7-1.1 4-1.9 7.9-2.4 11.8-.5 3.9-.6 7.8-.4 11.6.2 3.7.7 7.5 1.7 11 1.8 7.1 5.2 13.7 9.9 19.4 2.3 2.9 5 5.5 7.9 7.9 1.5 1.2 3 2.4 4.5 3.4.8.4 1.6 1 2.4 1.5l2.4 1.3c.7.4 1.6.8 2.4 1.2.8.3 1.6.7 2.5 1 1.7.6 3.4 1.3 5.1 1.7 1.8.5 3.6.7 5.4 1.2 1.9.1 3.8.5 5.7.5 1.9.2 3.9.1 5.9.1 2-.1 4-.1 6.1-.4 4.2-.3 8.5-.9 12.9-1.7 4.4-.8 9-1.7 13.7-2.7 4.7-.9 9.6-1.9 14.8-2.7 5.2-.8 10.7-1.4 16.7-1.4 6 .1 12.6.9 19.2 3.4s12.8 6.7 17.4 11.7c2.2 2.5 4.3 5 6.1 8q.8 1.1 1.3 2.2l1.2 2.2c.8 1.5 1.3 2.9 1.9 4.4 2.3 5.9 3.6 11.5 4.5 17 .8 5.5 1.2 10.8 1.4 16.1.3 10.4-.2 20.5-1.1 30.3-1.8 19.8-4.9 38.9-8 57.8l-4.6 28.2c-1.6 9.6-2.8 18-3.2 26.8-.8 17.3 1.6 34.4 9 48 3.7 6.7 8.6 12.5 14.6 16.7 5.9 4.3 12.9 7.1 20.3 8.2 14.8 2.2 31-2.5 43.2-12.2 6.1-4.9 11.3-11 15.3-17.9q3-5.1 5-10.8c1.4-3.8 2.4-7.8 3.2-11.8.8-4 1.2-8.2 1.4-12.3.1-4.2.1-8.5-.3-12.7-.1-2.2-.5-4.3-.7-6.4-.3-2.2-.8-4.5-1.1-6.7-.4-2.2-.8-4.4-1.3-6.7q-.6-3.3-1.4-6.7c-4.1-17.9-9.8-36-15-54.6-5.3-18.5-10.1-37.7-12.5-57.7-1.2-9.9-1.8-20.1-1.6-30.2l.4-7.6c.2-2.6.6-5.1.8-7.6l.5-3.8.6-3.8c.5-2.5.8-5 1.5-7.5q.7-3.5 1.7-7c2-7.5 4.6-14.7 7.5-21.8l2.4-5.2.8-1.6 1.5-3.4 1.8-3.3 3.6-6.6c1.3-2.1 2.7-4.2 4-6.3 10.7-16.6 23.7-31.4 38.6-43.8q-3.4 6.5-7 12.7l-6.7 12.6c-2 4.3-4.3 8.4-6.2 12.7l-2.9 6.3c-1 2.1-1.9 4.3-2.7 6.4l-2.7 6.4-2.3 6.5-.4 1c46.9-.5 95 1.4 141.9 3.3 127.3 5.1 258.3 10.3 376.4-29.8q-3.8-2-7.6-3.8c-1.7-.9-3.4-1.6-5.2-2.4-1.7-.7-3.4-1.6-5.2-2.2l-5.4-2.1-2.7-1-2.7-.9c-3.7-1.2-7.3-2.5-11.1-3.4-3.7-1-7.5-2-11.3-2.8-15.3-3.3-31.1-5.1-47.2-6.2 15.7-3.4 32-5 48.5-4.5 16.4.6 33.1 3.3 49.1 8.8 8.9 3 17.6 6.8 26 11.2q9.8 5.2 19 11.3 4.4 2.9 8.6 6 5.9 4.2 11.5 8.6c6.4 5 12.6 10.3 18.7 15.4 12.2 10.2 23.9 20.2 36.3 27.7 6.2 3.7 12.6 6.7 19 9 6.6 2.2 13.3 3.5 20.1 4.1l5.2.2 1.3.1c.4 0 .8-.1 1.2-.1l2.5-.1c3.1-.3 6.3-.7 9.3-1.5q4.4-1.2 8.6-3.2 4.2-2.1 8-5c10.1-7.7 18.3-19.5 25.3-32.4l12.5-25.8c2.6-5.7 5.1-11.5 7.6-17.4 6.4-14.7 12.9-29.8 21.3-44.6 4.2-7.4 8.9-14.7 14.5-21.7s12.2-13.6 19.9-19.1c3.9-2.8 8-5.3 12.4-7.4 4.3-2.1 8.9-3.7 13.6-5 4.6-1.2 9.3-2 14-2.5 4.8-.4 9.4-.5 14.1-.2 9.5.6 19.1 2.8 28 6.8 8.9 4.1 17.1 9.9 23.6 16.9 3.3 3.5 6.3 7.2 9 11 1.3 1.9 2.5 3.9 3.7 5.9 1.1 2 2.3 4 3.3 6 4.1 8.2 7.2 16.6 9.5 25 4 14.8 5.9 29.8 6.7 44.5q.1 3.1.3 6.1c.1 8.3.2 16.6-.4 25v.3c-.2 4.2-.6 8.4-1 12.7-.6 4.2-1.1 8.3-1.7 12.4-1.3 8.3-2.9 16.2-4.1 23.6-1.1 7.5-1.8 14.6-1.8 21.8l.1 5.3.4 5.4c.1 1.8.4 3.5.6 5.3.2 1.7.5 3.4.8 5.1 1.4 6.8 3.4 13.3 6.4 19 5.8 11.6 15.2 20.2 27 24.2 11.7 4 25.5 3.5 38-.8 12.6-4.3 23.9-12.4 31.9-22.8 8-10.5 12.5-23.2 13.2-36.7.2-3.3 0-6.7-.2-10.1l-.6-5c-.3-1.7-.7-3.4-.9-5-1.5-6.7-3.8-13.4-6.8-20-3-6.7-6.5-13.4-10.3-20.3-3.8-7-7.9-14.1-11.6-21.9q-1.3-2.8-2.6-5.7-1.4-3.2-2.6-6.5c-1.7-4.5-2.8-8.3-4-12.3q-1.6-5.2-3-10.5-1.8-6.7-3.4-13.6c-.5-2.1-.8-4.1-1.2-6.2l-1.2-6.3c-.7-4.1-1.3-8.4-1.8-12.6l-.6-6.4c-.2-2.2-.4-4.3-.5-6.4l-.1-6.5c0-1.1-.1-2.2-.1-3.3l.1-3.3c.5-17.4 3.7-35.1 10.5-51.5 3.4-8.2 7.4-16.1 12.1-23.5l3.6-5.5c.6-.9 1.3-1.8 1.9-2.6l2-2.6 4-5.2.5-.7.6-.6 1.2-1.4 2.5-2.8c7-7 15.2-12.3 23.6-16.3 8.4-3.9 16.8-6.5 25.1-8.6 14.9-3.6 29.2-5.8 43.2-8.1q-1.3-.8-2.7-1.5c-8.6-4.6-17.3-9-26.4-13-9.1-4-18.4-7.6-27.9-11.2 20.3-.5 40.9 3.1 60.6 9.5 8.9 2.9 17.7 6.4 26.2 10.2 10.2 4.5 20.1 9.5 29.7 14.5q2.7 1.4 5.4 2.7c7 3.6 13.9 7.1 20.7 10.2 8.7 4 17.3 7.4 26 9.6 8.7 2.3 17.6 3.6 26.5 3.6 2.3 0 4.5 0 6.7-.1 2.3-.2 4.5-.3 6.8-.6s4.6-.5 6.9-.9l3.4-.5c1.1-.2 2.3-.5 3.4-.7 18.1-3.6 35.5-10.6 51.9-20s31.9-21 46.9-33.5c15.1-12.6 29.8-26.1 45.2-39.3 15.5-13.2 31.8-26.3 50.6-36.9 4.7-2.7 9.6-5.1 14.6-7.3 5-2.3 10.3-4.2 15.6-5.8 10.7-3.3 22-5.2 33.3-5.4 5.7-.1 11.3.2 16.9.9 5.6.7 11.1 1.6 16.4 3 5.4 1.3 10.7 3 15.8 4.8 2.6.9 5.1 2 7.6 3l4.1 1.8c1.3.6 2.6 1.3 4 2 5.2 2.8 10.4 6.3 15 10.6 4.7 4.2 8.8 9.1 12.1 14.4 3.4 5.4 5.8 11.1 7.7 16.9 1.8 5.7 2.9 11.5 3.6 17.2 1.4 11.4 1.1 22.3.3 32.9-.9 10.6-2.5 20.9-4.2 31-3.5 20.2-7.9 39.8-11.4 59.1-1.7 8.9-3.1 17.8-4.3 26.6-1.3 9.7-2.2 19.2-2.5 28.7v1.9c-.2 9.4.2 18.6 1.6 27.4.3 2.2.8 4.4 1.2 6.6.5 2.2 1 4.5 1.6 6.6.6 2.2 1.1 4.4 1.8 6.4l1.1 3.2c.3 1 .7 2 1.1 3.1 6.3 16.4 16.7 30.4 30.5 40.2 13.8 9.8 30.8 15.2 48.2 16.2 17.5 1 35.5-2.3 51.6-9.2 16.2-6.9 30.6-17.6 40.3-31.2 4.9-6.8 8.7-14.2 11-22 1.2-4 2-8 2.5-12.1s.6-8.2.4-12.4l-.1-3.2-.4-3.5-.8-6.9c-.4-4.7-1.4-9.2-2.2-13.7-1.7-9-4.5-17.6-7.6-26.1l-2.7-6.3-1.4-3.1-1.5-3.2-3.2-6.3-3.4-6.5-4.2-7.8-3-5.5-3.5-6.9-1.8-3.5-1.7-3.6-2.2-4.9-1.1-2.4c-1.1-2.4-2-4.9-3.1-7.4l-2.9-7.4-2.6-7.6-2.5-7.5-2.1-7.7c-1.3-5.1-2.8-10.2-3.7-15.4-1.1-5.1-2.2-10.2-3.1-15.4l-2.4-15.4c-.3-2.5-.8-5.1-1.1-7.6l-.7-7.7-1.6-15.3-.1-1c0-.3-.1-.6-.1-1l-.1-2.4c-.2-1.6-.1-3.3-.1-5 .1-3.3.5-6.7 1.1-10 1.2-6.7 3.7-13.3 7-19 3.3-5.8 7.2-10.8 11.4-15.2 4.2-4.4 8.7-8.2 13.2-11.6 9-6.9 18.1-12.4 27.2-17.4 9.1-5.1 18.2-9.7 27.1-14.3 17.7-9.1 34.9-18.2 50.6-28.6 15.7-10.5 29.8-22.4 40.8-36.4 2.7-3.4 5.2-7.1 7.6-10.8 2.3-3.7 4.4-7.5 6.3-11.5 1-2 1.8-4 2.7-6 .8-2.1 1.6-4.1 2.3-6.2l1.1-3.1.9-3.2.5-1.5.4-1.6.8-3c.8-4.5 1.5-9.2 2.3-13.8.5-2.3.7-4.7 1-7.1l.8-7.1.5-3.5c.1-1.2.1-2.4.2-3.6l.6-7.1c.1-2.4.4-4.8.4-7.2l.2-7.1c.5-19.2-.5-38.3-2.9-57.4s-6.4-38-11.2-56.7c-5-18.8-10.9-37.3-17.9-55.5-7-18.2-14.8-36.1-23.2-53.8-8.5-17.6-17.8-34.9-27.5-52-9.7-17.2-20.1-33.9-30.8-50.5s-21.9-32.9-33.3-49.1c-11.5-16.1-23.2-32.1-35.3-47.8-6-7.9-12.2-15.7-18.3-23.5-6.2-7.8-12.4-15.6-18.7-23.2-3.1-3.9-6.2-7.8-9.4-11.6l-9.5-11.2c-1.6-1.9-3.1-3.8-4.7-5.6l-5-5.5-9.8-10.9c-53.3-57.5-115-107.3-183.1-146.4-16.9-10-34.3-18.9-51.9-27.6l-13.3-6.2-6.7-3.2-6.9-3.1c-9.1-4.1-18.3-8.2-27.4-12.5-36.5-16.8-72.8-34.1-108.7-52.3-18-9-35.9-18.4-53.7-27.9-17.7-9.6-35.4-19.3-52.9-29.5-17.4-10.2-34.8-20.7-51.8-31.8-4.3-2.7-8.5-5.6-12.7-8.4-2.1-1.5-4.2-2.8-6.4-4.3l-6.4-4.6c-8.5-6.1-16.7-12.8-24.6-19.8-15.7-13.9-29.9-29.8-42.1-47.1-1.6-2.2-3.2-4.4-4.6-6.6l-4.2-6.8-2.2-3.3-.3-.7c-54.3 26.1-102.6 64.5-140.3 111.5l-12.1 15.2q4.8-1 9.6-1.9c12.6-2.4 25.3-4.2 38-5.8q19.2-2.1 38.4-2.8c12.9-.4 25.8-.4 38.6.1 12.9.6 25.8 1.6 38.6 3.4 12.8 1.9 25.6 4.3 38.3 7.6 12.7 3.3 25.3 7.5 37.5 13.2 12.2 5.7 24.1 13.1 34.5 23.1 5 5.2 9.7 10.9 13.5 17.5 3.7 6.6 6.6 13.8 8.2 21.4.6 3.2 1 6.5 1.2 9.7q1.4 3.8 2.7 7.5c1.3 3.9 2.4 7.7 3.5 11.6q.8 2.9 1.5 5.9l1.2 6.3.6 3.1.3 3.2c.2 2.2.5 4.3.6 6.4 0 4.3.2 8.6-.2 12.9-.2 4.3-.9 8.5-1.5 12.8-.4 2.1-.9 4.1-1.4 6.2l-.7 3.2c-.2 1-.6 2-.9 3l-1.8 6.1-2.3 6-1.1 2.9-1.3 2.9-2.7 5.8c-3.9 7.4-8 14.7-12.8 21.5-9.4 13.8-20.7 25.9-32.8 36.8-12.1 11-25.1 20.8-38.8 29.4-13.7 8.7-28 16.2-42.6 22.8-29.4 13.2-60.2 22.6-91.7 28.5-31.4 5.7-63.6 8.1-95.7 6.4-16-.9-32-2.7-47.9-5.9l-11.8-2.6c-4-1-7.9-2-11.8-3-7.8-2.3-15.6-4.8-23.2-7.7-15.2-5.8-30.1-13-43.9-22.1-13.8-9.2-26.7-20.2-37.3-33.5-5.3-6.6-9.8-13.9-13.8-21.5-.9-1.9-1.7-3.9-2.6-5.8-.4-1-.9-2-1.3-3l-1.1-3c-.7-2-1.5-4-2-6l-1.7-6.2c-.6-2.1-.8-4.2-1.2-6.3-.3-2.1-.7-4.3-.9-5.9l-1.8-11.3q-.7-4.6-1.3-9.3c-1.6-4.4-2.8-8.9-3.6-13.4q-.2-1.3-.3-2.6c-31.5 28.7-58.3 62.4-78.8 99.9l-3 5.5c-10.4 19-23 36.9-37.3 53.2-23.6 26.9-53.5 48-89 62.8-61.1 25.4-105.5 63.6-135 116.2q-3.1 5.5-5.9 11.1-2.5 5-4.9 10.2l-39.3 103.2-2.9 7.7s-8.9-2-9-2l-17.9 7.6c-2.3 1.1-2.3-2.3-.8-8.7 7.1-29.3 46.4-120.7 46.4-120.7 32-69.2 84.1-118.1 159-149.3 31.7-13.2 58.3-31.9 79.2-55.7 13-14.9 24.5-31.2 34-48.5l3-5.5c27.2-49.7 64.8-93.3 109.4-127.9 6-12.5 14.1-23.3 23.1-32.8 18.5-19.3 40.5-33.8 63.1-46.2 29.6-15.7 60.7-28.1 92.7-37.3q3-3.5 5.9-7.1l28.3-35.2c39.9-49.9 91.3-90.7 148.9-118.5l-.2-.6c-2.1-4.9-4.3-9.8-5.9-14.9-.9-2.6-1.9-5.1-2.7-7.6l-2.2-7.8-1.1-3.9-.9-3.9-1.7-7.9-1.3-8-.6-4c-.2-1.4-.3-2.7-.4-4.1l-.7-8.1c-.2-2.7-.2-5.4-.3-8.1-.2-5.4.2-10.8.4-16.3 0-1.3.2-2.7.3-4l.4-4.1.5-4 .2-2 .4-2c1-5.4 1.8-10.7 3.3-16 .7-2.6 1.3-5.2 2.1-7.8l2.5-7.7c6.9-20.6 17.7-39.6 30.6-56.6 12.9-17 28.1-31.9 44.5-45 8.2-6.7 17.1-12.7 26.3-18.3 2.3-1.4 4.7-2.5 7.1-3.9l3.5-1.9c1.2-.6 2.4-1.2 3.6-1.7l7.4-3.4c1.3-.5 2.5-1.1 3.7-1.6l3.9-1.4 7.6-2.8 7.8-2.3 3.9-1.1 12-2.5 8.1-1.1c1.4-.2 2.7-.4 4.1-.6l4-.3c2.8-.1 5.5-.4 8.2-.4h8.2c10.9.4 21.8 1.6 32.4 4.2l4 .9c1.3.3 2.6.7 3.9 1.1 2.6.8 5.2 1.5 7.8 2.4 5.1 1.9 10.3 3.6 15.2 6 5 2.1 9.7 4.9 14.4 7.4 2.4 1.4 4.6 2.9 6.9 4.4l3.4 2.2 3.3 2.4q5.7 4.1 11 8.7c194.3 48.3 391.3 155.2 572 310.7 177.1 152.3 325 340.9 416.5 531 108.1 224.5 127.2 428.7 53.8 575zm-2200.2-351.4q-4.3 1.4-8.4 2.9l5.4-3.2q1.1-.6 2.1-1.2zm715.5-650.4-2.8 3.4c-25.6 31.9-58.8 57.6-96.2 74.2l-13.7 6.1c-29.5 13.1-57.1 29.9-82.3 49.9q-.1.3-.1.6c-.5 5.3-.2 10.5.8 15.6q1.8 7.6 5.7 14.4c2.7 4.4 6.1 8.6 9.9 12.5 7.9 7.5 17.5 13.7 27.9 18.8 21.1 10 44.8 15.4 68.7 18.7 24 3.2 48.5 3.6 72.9 2.5 12.2-.6 24.4-1.7 36.6-3.2 12.1-1.5 24.2-3.5 36.3-5.8 48.3-8.1 95.9-22.4 138.5-45.3 21.2-11.5 41.2-25.3 57.1-42 7.8-8.3 14.4-17.5 18.9-27.2 2.1-4.8 3.7-9.7 4.6-14.6q1.2-7.5.3-14.8c-.8-4.8-2.3-9.6-4.5-14.2-2.3-4.6-5.3-9-8.8-13.1-7.3-8.2-16.5-15.4-26.8-21.2-20.6-11.8-44.6-19-68.9-23.2-24.4-4.3-49.4-5.4-74.3-4.9-12.4.4-24.9 1.3-37.3 2.5-12.5 1.3-24.8 3.2-37.2 5.1q-12.7 2.3-25.3 5.2zm280.7 139.9c-9.2 10.3-19.3 19.3-30 27.5-10.6 8.2-21.8 15.5-33.3 22.1-46 26.3-96.2 42.8-147.5 52.9-51.5 8.4-104.4 10.2-156.5 1.3-13.1-2.3-26-5.4-38.7-9.4-12.8-4.1-25.4-9.2-37.4-15.8-5.9-3.2-11.7-6.8-17.1-11q1.3 2.5 2.7 4.9c3.7 5.8 7.8 11.2 12.6 16.2 9.4 10.1 20.7 18.5 33 25.5s25.5 12.7 39.1 17.1c27.5 8.8 56.6 13.3 85.8 14.2 14.6.5 29.3.1 43.9-1.1 14.7-1.1 29.3-3.1 43.7-5.8 29-5.3 57.3-13.7 84.2-25.1 26.9-11.4 52.5-26 74.8-44.2 2.8-2.2 5.4-4.7 8.1-7 2.7-2.4 5.2-4.9 7.8-7.4 4.8-5.1 9.7-10.3 14-15.9 4.5-5.4 8.3-11.3 12-17.2l2.4-4.6 1.3-2.3 1-2.3 2.2-4.7 1.9-4.8.9-2.4.7-2.4c.5-1.7 1.1-3.3 1.5-4.9.8-3.3 1.7-6.6 2.1-10 .3-1.7.5-3.4.6-5.1-4.6 7.9-9.9 15.1-15.8 21.7zm-445.8-59.2c13.4-7.9 27.3-15.1 41.6-21.4l13.7-6.1c22.1-9.8 42.5-23.2 60.5-39.3-22.9 7.8-45.3 17.4-66.2 29.5-10.7 6.2-21 13.1-30.7 20.6-6.6 5.3-13 10.8-18.9 16.7zm194.1 1273.2-.4-7.8-.5-5.7c-.2-1.8-.4-3.7-.6-5.5-1-7.4-2.4-14.7-4.2-21.7-3.8-13.9-9.9-26.8-18.7-36.1-4.4-4.7-9.5-8.3-15.1-11-5.7-2.5-11.9-4-18.4-4.4-3.2-.3-6.6-.1-9.9.1q-4.9.5-9.5 1.6c-3 .9-6 1.9-8.9 3.3-2.8 1.4-5.6 3-8.2 4.9-10.6 7.5-19.3 19.2-26.7 32.1-7.4 13-13.7 27.3-20.1 41.9q-2.2 5.2-4.5 10.5c13.6 1.4 27.3 2.2 41.1 2.7 8.1.1 16.2.3 24.4.2 4.1-.1 8.1 0 12.2-.2l12.2-.5c16.3-.8 32.6-1.9 48.9-3.7 2.3-.2 4.6-.4 6.9-.7zm715.1-247.2c-1-8.6-3.3-16.4-7.2-22.7-3.8-6.3-9.4-11.3-16.4-15.1-.9-.5-1.8-1-2.7-1.4l-2.8-1.3c-2.1-.9-4.3-1.8-6.4-2.5-4.3-1.6-8.6-3-12.9-4.1-8.7-2.2-17.4-3.3-26.1-3.2-8.7.1-17.3 1.5-25.8 4-4.3 1.3-8.5 2.8-12.6 4.6q-6.2 2.6-12.3 6c-16.1 9-31.3 20.9-46.4 33.6-15 12.7-29.9 26.2-45.7 39.2-15.8 13-32.5 25.5-50.9 35.9-18.4 10.3-38.6 18.5-59.9 22.5q-1.9.4-3.9.8l-4 .6c-2.7.4-5.4.7-8.1 1-2.6.3-5.4.4-8.1.6-2.8.2-5.6.1-8.3.2-11.1-.2-22.2-1.8-32.8-4.7-10.7-2.8-20.7-6.9-30.2-11.5-9.4-4.7-18.3-9.9-26.9-15.1-4.6-2.8-9.1-5.6-13.5-8.4-8.4 2-16.6 3.6-24.8 5.1-16 2.9-31.7 5.1-46.2 8.8-14.5 3.5-27.3 9-35.8 17.7l-1.5 1.7-.8.8c-.1.2-.3.3-.4.5l-.4.5-3.3 4.4-1.7 2.2c-.5.7-1.1 1.4-1.6 2.2l-2.9 4.5c-3.9 6.1-7.1 12.6-9.8 19.1-5.4 13.2-7.9 27.5-8.3 42l-.1 2.7c0 .9 0 1.8.1 2.7l.1 5.5c0 1.9.3 3.7.4 5.6l.5 5.5c.6 3.7 1 7.4 1.6 11.1l1.1 5.5c.4 1.9.7 3.7 1.2 5.6q1.3 6 2.9 11.9 7.1-2.4 14.5-5.1c15.8-5.6 32.6-11.4 50.3-14.6 35.4-6.6 71.7-2.8 104.6 4 15.3 2.9 30.9 4.1 46.4 3.5 15.5-.7 30.8-3.6 45.9-8 15-4.6 29.8-10.6 44.3-17.9 14.5-7.1 28.8-15.4 43.5-23.3q1.4-.7 2.8-1.5c13-6.9 26.5-13.5 40.6-18.8.9-.3 1.8-.7 2.7-1 16-5.9 33-10.1 50.1-10.5l.2.7c-7.6 3.9-15 7.6-22.2 11.7q-2.4 1.3-4.8 2.7c7.6 1.1 15.1 2.4 22.5 3.6 43.3 7.1 82.5 13.5 130.2 4 1.4-13.6 3.7-26.8 6.2-39.9 3.7-20 8.2-39.5 11.7-58.8 1.7-9.6 3.2-19.1 4-28.4.9-9.3 1.1-18.5.1-27zm399 9.1-2.1-1-1.9-.9h-.1l-1.7-1-7.4-4c-2.3-1.4-4.6-2.9-6.9-4.4-1.2-.8-2.3-1.5-3.5-2.3l-3.2-2.5-3.2-2.4c-1.1-.9-2.2-1.7-3.2-2.6l-5.9-5.4c-1.1-.9-1.9-1.8-2.8-2.8l-2.8-2.9-2.7-2.9-2.4-3c-6.8-8-12.1-16.8-16.7-25.7l-3.1-6.8c-1.1-2.2-1.9-4.5-2.8-6.9-1.9-4.5-3.1-9.2-4.6-13.9-.7-2.4-1.2-4.7-1.7-7.1-.6-2.4-1.2-4.7-1.6-7.1-.8-4.8-1.7-9.5-2.1-14.3-1.5-12.2-1.8-24.4-1.2-36.5-8.7 7.8-18 14.7-27.5 21-17.6 11.7-36 21.3-53.9 30.4-8.9 4.6-17.7 9.1-26.1 13.7-8.4 4.7-16.4 9.5-23.3 14.8-7 5.2-12.7 11-16.1 16.8-1.7 3-2.8 5.9-3.4 9-.3 1.6-.4 3.2-.5 4.9 0 .8-.1 1.7 0 2.6l.1 1.3c0 .2 0 .5.1.8l.1.9 1.4 14.6.7 7.3c.2 2.4.7 4.7 1 7.1l2.1 14.3c.8 4.7 1.9 9.4 2.8 14.1.8 4.7 2.1 9.2 3.3 13.8l1.8 6.9 2.2 6.6 2.2 6.7 2.6 6.5q.6 1.4 1.1 2.8c60.8-39 132.7-60.2 207.2-60.5h5.7zm263.8-677.4c-152.4-316.5-504.5-695.5-933.7-817.5 17.6 27.6 26.5 60.1 25 91.4-3.3-9.6-6.3-19.1-10.4-28.1-.9-2.3-1.8-4.5-3-6.7l-3.2-6.6c-1.1-2.2-2.3-4.3-3.4-6.4-1.2-2.1-2.3-4.3-3.6-6.3l-3.8-6.1c-1.3-2-2.7-4-4.1-5.9l-2-3c-.7-.9-1.5-1.8-2.2-2.8l-4.3-5.6-4.7-5.4c-.7-.9-1.5-1.8-2.3-2.7l-2.4-2.5c-1.7-1.7-3.2-3.4-4.9-5l-5.1-4.8-4.4-3.8c-5.6-4.8-11.4-9.3-17.6-13.2l-2.9-2-3-1.7c-2-1.1-3.9-2.4-6-3.4l-1.8-1-4.3-2.2q-1.5-.8-3.1-1.4l-3.2-1.4c-4.1-2-8.5-3.4-12.7-5-2.2-.7-4.4-1.3-6.6-1.9-1.1-.3-2.2-.7-3.3-1l-3.4-.7c-8.8-2.1-17.9-3-27-3.3h-6.8c-2.3.1-4.6.3-6.8.5l-3.5.2c-1.1.1-2.2.3-3.3.5l-6.8 1-6.7 1.4-3.3.8-3.3.9-6.6 2-6.5 2.4-3.2 1.2c-1.1.4-2.1.9-3.1 1.4l-6.3 2.9c-1.1.4-2.1 1-3.1 1.5l-3.1 1.7c-2 1.1-4.1 2.1-6 3.4-8 4.9-15.6 10.1-22.9 16.1-14.8 12-28.3 25.4-39.5 40.4-11.2 14.9-20.3 31.3-26 48.7-5.9 17.4-8.8 35.8-8.2 54.1.1 2.3.1 4.6.3 6.9l.6 6.8c.2 1.2.2 2.3.4 3.5l.6 3.4 1.1 6.8 1.5 6.8.8 3.3.9 3.4 2 6.6c.7 2.2 1.5 4.4 2.3 6.6 1.4 4.4 3.4 8.6 5.2 12.9q0 .1.1.2c.8 2.1 1.9 4.1 2.9 6.1 1.1 2.1 2 4.2 3.2 6.3l3.4 6.1 1.7 3 1.3 2.1.6.9 3.8 5.9c1.3 2 2.7 3.9 4 5.8 11 15.3 23.7 29.4 38 41.9 7.1 6.3 14.5 12.3 22.2 17.8l5.9 4.1c1.9 1.4 4 2.7 6.1 4.1 4.1 2.7 8.1 5.4 12.3 8.1 16.6 10.7 33.6 20.8 50.7 30.7 17.2 9.9 34.6 19.4 52.1 28.8 17.6 9.2 35.2 18.4 53.1 27.2 35.6 17.8 71.7 34.8 108 51.3q13.6 6.3 27.2 12.3l6.9 3.1 6.9 3.2 13.9 6.4c18.3 9 36.6 18.3 54.2 28.6 70.9 40.5 135.4 92.2 191.1 151.9l10.3 11.4 5.1 5.7c1.7 1.9 3.3 3.9 5 5.8l9.9 11.7c3.3 3.9 6.4 7.8 9.6 11.7 6.5 7.7 12.7 15.7 19 23.5l9.4 11.9 9.3 12c12.3 16 24.3 32.3 36.1 48.7 11.7 16.6 23.1 33.3 34.2 50.3 10.9 17.1 21.6 34.3 31.7 52.1 10 17.7 19.7 35.6 28.6 54.1 8.8 18.4 17 37.2 24.4 56.4 7.4 19.2 13.7 38.8 19 58.8 5.2 20 9.4 40.3 12 61 2.5 20.7 3.6 41.6 3.1 62.5l-.3 7.8c0 2.6-.3 5.3-.5 7.8l-.6 7.9-.3 3.9-.5 3.9-.9 7.8c-.4 2.6-.6 5.2-1.1 7.8-.9 5.3-1.8 10.5-2.8 15.8l-1 4.2-.6 2.1-.6 2.1-1.2 4-.3 1c-4.1 16.5-5.6 33.2-7.2 49.6-1.8 17.2-1.8 34.3.2 50.7.4 4.2 1.2 8.2 1.9 12.3.3 2 .9 4 1.4 6 .5 2 .9 4 1.5 5.9 1.2 3.9 2.3 7.8 3.9 11.5.7 1.9 1.4 3.8 2.2 5.6l2.6 5.5c.8 1.8 2 3.5 2.9 5.3 1.1 1.7 1.9 3.5 3.1 5.1l3.4 5c1.2 1.6 2.5 3.1 3.7 4.7.7.8 1.3 1.6 1.9 2.3l2.1 2.2 2.1 2.2c.7.8 1.3 1.6 2.1 2.2l4.5 4.1c.7.7 1.6 1.3 2.4 1.9l2.4 1.9 2.5 1.9c.8.6 1.7 1.1 2.6 1.7 1.7 1.1 3.4 2.3 5.2 3.3l5.6 3.1 1.3.7q.1 0 .1.1l1.4.6 3 1.3c3.8 1.9 8 3.2 12 4.8h.1c2.1.7 4.2 1.3 6.4 1.9l3.1 1h.1l3.3.7 6.5 1.6h.1l6.8 1.1 3.4.6c1.1.2 2.3.3 3.5.4l7 .8c2.3.2 4.7.3 7 .4l3.6.2c1.2.1 2.4.2 3.6.1l7.2.1h3.7l3.6-.1c4.8-.2 9.7-.3 14.5-.8l7.2-.6c2.3-.2 4.4-.6 6.7-.9 9.2-1.6 18.3-3.8 27.1-6.8 8.9-3 17.5-6.7 25.7-10.9 8.3-4.3 16.1-9.2 23.5-14.7 29.6-21.8 51.6-52.1 62.6-84.2 2.7-8.1 4.8-16.2 6.1-24.4 1.2-8.2 1.8-16.4 1.4-24.5-.7-16.1-5-31.8-12.9-45.7-4-6.9-8.9-13.4-14.7-19.3-5.8-5.8-12.5-11.2-19.6-16-14.2-9.7-30.5-17-48.9-20.9-9.2-1.7-18.9-2.7-28.8-2.6-9.9.1-20 1.1-30 2.9-10 1.9-20.1 4.4-30 7.5q-4.1 1.4-8.3 2.9c-2.3.8-3.8-1.8-1.7-3 11.7-6.6 26.4-14.3 37.2-17.9 10.4-3.3 21.2-5.9 32.3-7.6 11.1-1.6 22.4-2.3 33.8-1.8 11.4.5 22.7 2.3 33.6 5.4 10.8 3 21 7.5 30.3 13s17.6 11.8 25.2 19.1c7.5 7.3 13.9 15.5 19.2 24.1 10.5 17.5 16.2 36.9 17.5 56.6.7 9.8.2 19.7-1.1 29.5s-3.5 19.6-6.5 29.2c-5.3 16.4-13 32.3-22.8 47.3 14.6-13.5 26.8-28.8 36.8-45.9 69.4-138.7 50.2-334.4-54.1-551z" />
  <path class="g"
    d="M2129.9 1489.1c-.1 1.7-.3 3.4-.6 5.1-.4 3.3-1.3 6.6-2.1 9.9-.4 1.7-1 3.3-1.5 4.9l-.7 2.5c-.3.8-.7 1.6-1 2.4l-1.8 4.7-2.2 4.7-1.1 2.4-1.2 2.3-2.5 4.5c-3.6 6-7.4 11.8-11.9 17.3-4.3 5.5-9.2 10.7-14.1 15.9-2.6 2.4-5.1 5-7.7 7.3-2.8 2.4-5.3 4.9-8.2 7.1-22.2 18.2-47.8 32.8-74.7 44.2-26.9 11.4-55.3 19.8-84.2 25.1-14.5 2.6-29 4.6-43.7 5.7-14.6 1.2-29.3 1.6-43.9 1.1-29.3-.9-58.3-5.3-85.8-14.1-13.7-4.4-26.8-10.1-39.2-17.1-12.2-7-23.5-15.5-32.9-25.5-4.8-5-8.9-10.5-12.6-16.2q-1.4-2.5-2.8-4.9c5.5 4.1 11.3 7.8 17.2 11 12 6.5 24.6 11.6 37.3 15.7 12.8 4.1 25.7 7.2 38.7 9.4 52.2 9 105.1 7.2 156.6-1.3 51.2-10 101.5-26.6 147.5-52.8 11.5-6.7 22.6-14 33.3-22.1 10.6-8.2 20.8-17.3 30-27.6 5.8-6.6 11.2-13.8 15.8-21.6z" />
  <path class="h"
    d="M2116.2 1449.4c-.9 5-2.5 9.9-4.6 14.7-4.5 9.6-11.1 18.8-19 27.1-15.8 16.8-35.8 30.5-57 42-42.6 22.9-90.3 37.3-138.5 45.4-12.1 2.2-24.2 4.3-36.3 5.8-12.2 1.5-24.4 2.6-36.6 3.2-24.4 1.1-48.9.7-72.9-2.6-23.9-3.2-47.7-8.7-68.7-18.7-10.4-5-20-11.2-27.9-18.8-3.8-3.9-7.2-8-9.9-12.5q-3.9-6.8-5.8-14.3c-1-5.1-1.2-10.3-.7-15.6.6-5.3 2-10.7 3.9-15.9 4.2-10.5 10.6-20.5 18.5-29.5 7.8-9 16.9-17.3 26.5-24.8 9.7-7.6 20-14.5 30.7-20.6 21.5-12.5 44.6-22.3 68.2-30.3 11.8-3.9 23.8-7.4 36-10.5 12.1-3 24.3-5.6 36.6-7.9 12.4-1.9 24.7-3.8 37.1-5 12.5-1.2 24.9-2.1 37.4-2.5 24.9-.6 49.9.6 74.3 4.9 24.3 4.1 48.2 11.3 68.9 23.1 10.3 5.8 19.5 13 26.7 21.2 3.5 4.2 6.6 8.5 8.9 13.1 2.2 4.6 3.6 9.4 4.4 14.3q1 7.3-.2 14.7z" />
  <path class="i"
    d="m2916.5 2184-.2 7.1c0 2.4-.3 4.8-.4 7.2l-.6 7.1c-.1 1.2-.1 2.4-.2 3.6l-.5 3.5-.8 7.1c-.3 2.4-.5 4.8-1 7.1-.8 4.6-1.5 9.3-2.3 13.8l-.8 3-.4 1.6-.5 1.5-.9 3.2-1.1 3.1c-.7 2.1-1.5 4.1-2.3 6.2-.9 2-1.7 4-2.7 6-1.9 4-4 7.8-6.3 11.5-2.4 3.7-4.9 7.4-7.7 10.9-10.9 13.9-25 25.8-40.7 36.3-15.7 10.4-32.9 19.5-50.6 28.6-8.9 4.6-18 9.2-27.1 14.3-9.1 5-18.2 10.5-27.2 17.3-4.5 3.5-9 7.3-13.2 11.7-4.2 4.4-8.2 9.4-11.4 15.2-3.3 5.7-5.8 12.3-7 19-.7 3.3-1 6.7-1.1 10 0 1.7 0 3.4.1 5l.1 2.4c0 .4.1.7.1 1l.1 1 1.6 15.3.7 7.7c.3 2.5.8 5.1 1.1 7.7l2.4 15.3c.9 5.2 2 10.3 3.1 15.4.9 5.2 2.4 10.3 3.7 15.4l2.1 7.7 2.5 7.5 2.6 7.6 2.9 7.5c1 2.4 2 4.9 3.1 7.3l1.1 2.4 2.2 4.9 1.7 3.6 1.8 3.5 3.5 6.9 3 5.5 4.2 7.8 3.4 6.5 3.2 6.3 1.5 3.2 1.4 3.1 2.7 6.3c3.1 8.5 5.9 17.1 7.6 26.1.8 4.5 1.8 9 2.2 13.7l.8 6.9.4 3.5.1 3.2c.2 4.2.1 8.3-.4 12.4s-1.3 8.1-2.5 12c-2.3 7.9-6.1 15.3-11 22.1-9.7 13.6-24.1 24.3-40.3 31.2-16.1 6.9-34.1 10.2-51.6 9.2-17.4-1-34.4-6.4-48.2-16.2-13.8-9.8-24.2-23.8-30.5-40.2-.4-1.1-.8-2.1-1.1-3.1l-1.1-3.2c-.7-2.1-1.2-4.2-1.9-6.4-.5-2.1-1-4.4-1.5-6.6-.4-2.2-.9-4.4-1.2-6.6-1.4-8.8-1.8-18-1.6-27.4v-1.9c.3-9.5 1.2-19.1 2.5-28.7 1.2-8.8 2.6-17.7 4.3-26.6 3.5-19.3 7.9-38.9 11.4-59.1 1.7-10.1 3.3-20.4 4.2-31 .8-10.6 1.1-21.5-.3-32.9-.7-5.7-1.8-11.5-3.6-17.2-1.8-5.8-4.4-11.5-7.7-16.8-3.3-5.4-7.4-10.3-12.1-14.5-4.6-4.3-9.8-7.8-15-10.6-1.4-.7-2.7-1.4-4-2l-4.1-1.8c-2.5-1-5-2.1-7.6-3-5.1-1.8-10.4-3.5-15.8-4.8-5.3-1.4-10.8-2.3-16.4-3-5.6-.7-11.2-1-16.9-.9-11.3.2-22.6 2.1-33.3 5.4-5.3 1.6-10.6 3.5-15.6 5.8-5 2.2-9.9 4.6-14.6 7.3-18.8 10.6-35.1 23.7-50.6 36.9-15.4 13.2-30.1 26.7-45.2 39.3-15 12.5-30.5 24.1-46.9 33.5-16.4 9.4-33.8 16.4-51.9 20-1.1.2-2.3.5-3.4.7l-3.4.5c-2.3.4-4.6.6-6.9.9-2.3.3-4.5.4-6.7.6-2.3.1-4.5.1-6.8.1-8.9 0-17.7-1.3-26.5-3.6-8.7-2.2-17.3-5.6-25.9-9.6-6.9-3.1-13.8-6.6-20.8-10.2q-2.7-1.3-5.4-2.7c-9.6-5-19.5-10-29.7-14.5-8.5-3.8-17.3-7.3-26.2-10.2-19.7-6.4-40.3-10-60.6-9.5 9.5 3.6 18.8 7.2 27.9 11.2 9.1 4 17.8 8.3 26.4 13q1.4.7 2.7 1.4c-14 2.4-28.3 4.6-43.2 8.2-8.3 2.1-16.7 4.7-25.1 8.6-8.4 4-16.6 9.3-23.6 16.3l-2.5 2.8-1.2 1.4-.6.6-.5.7-4 5.2-2 2.6c-.6.8-1.3 1.7-1.9 2.6l-3.6 5.5c-4.7 7.4-8.7 15.3-12.1 23.5-6.8 16.4-10 34.1-10.5 51.5l-.1 3.3c0 1.1.1 2.2.1 3.3l.1 6.5c.1 2.1.3 4.3.5 6.4l.6 6.4c.5 4.2 1.1 8.5 1.8 12.6l1.2 6.3c.4 2 .7 4.1 1.2 6.2q1.6 6.8 3.4 13.6 1.4 5.3 3 10.5c1.2 4 2.3 7.8 4 12.3q1.2 3.3 2.6 6.5 1.3 2.9 2.6 5.7c3.7 7.8 7.8 14.9 11.6 21.8 3.8 7 7.3 13.7 10.3 20.4 3 6.6 5.3 13.3 6.7 20 .4 1.6.7 3.3 1 5l.6 5c.2 3.4.4 6.8.2 10.2-.7 13.4-5.2 26.1-13.2 36.6-8 10.4-19.3 18.5-31.9 22.8-12.5 4.3-26.3 4.8-38 .8-11.8-4-21.2-12.6-27-24.2-3-5.7-5-12.2-6.4-19-.3-1.7-.6-3.4-.8-5.1-.2-1.8-.5-3.5-.6-5.3l-.4-5.4-.1-5.3c0-7.2.7-14.3 1.8-21.8 1.2-7.4 2.8-15.3 4.1-23.6.6-4.1 1.1-8.2 1.7-12.4.4-4.3.8-8.5 1-12.7v-.3c.6-8.4.5-16.7.3-25q-.1-3-.2-6.1c-.8-14.7-2.7-29.7-6.7-44.5-2.3-8.4-5.4-16.8-9.5-25-1-2-2.2-4-3.3-6-1.2-2-2.4-4-3.7-5.9-2.6-3.8-5.6-7.5-9-11-6.5-6.9-14.7-12.8-23.6-16.9-8.9-4-18.6-6.2-28-6.8-4.7-.3-9.3-.1-14.1.2-4.7.5-9.4 1.3-14 2.5-4.7 1.3-9.3 2.9-13.6 5-4.4 2.1-8.5 4.6-12.4 7.4-7.7 5.5-14.3 12.1-19.9 19.1-5.6 7-10.3 14.3-14.5 21.7-8.4 14.8-14.9 29.9-21.3 44.6-2.5 5.9-5 11.7-7.6 17.4l-12.5 25.8c-7 12.9-15.2 24.7-25.3 32.4q-3.8 2.9-8 5-4.1 2-8.6 3.2c-3 .8-6.2 1.2-9.3 1.5l-2.5.1h-2.5l-5.2-.2c-6.8-.6-13.5-1.9-20.1-4.1-6.4-2.3-12.8-5.3-19-9-12.4-7.5-24.1-17.5-36.3-27.7-6.1-5.1-12.3-10.4-18.7-15.4q-5.6-4.4-11.5-8.6-4.2-3.1-8.6-6c-6.1-4.1-12.5-7.9-19-11.3-8.4-4.4-17.1-8.2-26-11.2-16-5.5-32.7-8.2-49.1-8.8-16.5-.5-32.8 1.1-48.5 4.5 16.1 1.1 31.9 2.9 47.2 6.2 3.8.8 7.6 1.8 11.3 2.8 3.8.9 7.4 2.2 11.1 3.4l2.7.9 2.7 1 5.4 2.1c1.8.6 3.5 1.5 5.2 2.2 1.8.8 3.5 1.5 5.2 2.4q3.8 1.8 7.6 3.8c-118.1 40.1-249.1 34.9-376.4 29.8-43.1-1.7-87.1-3.5-130.3-3.3 191.8-35.9 230.2-52.4 357.2-105.5 58.2-24.4 125.4-13.2 181.3 16.2l21.9 11.5c56.2 29.6 125.7 7.6 155.8-51.4l8.8-17.2c34.3-67 120.1-89.4 181.6-46q1.6 1.1 3.2 2.4c14.5 10.7 35 1.1 36.4-16.9.7-9.8 3.5-19.7 7.5-29.5 27.3-66.6 99.3-102.8 169.6-87.7 62.6 13.3 106.5 45.2 150.3 6.5 8.6-7.6 15.4-17.2 20.4-27.7q22.8-48.3 51.8-82.5c35.1-41 88.1-62.8 141.7-56.6 21.7 2.6 42.3 8.4 61.9 14.7 67.7 21.7 141.3 16.5 204.8-15.3 22.5-11.3 42.4-23.4 59.6-36.3 49.2-37 70.2-100.5 54.2-159.9-51.5-190.6-171.5-344.7-297.3-462.2-9.9-9.2-20.2-18-30.7-26.4l-144.4-115.4q12.1 5.7 24.3 11.3c9.1 4.2 18.3 8.4 27.4 12.5l6.9 3.1 6.7 3.2 13.3 6.2c17.6 8.7 35 17.6 52 27.6 67.9 39.1 129.7 88.9 183 146.4l9.8 10.9 5 5.5c1.6 1.8 3.1 3.7 4.7 5.6l9.5 11.2c3.2 3.8 6.3 7.7 9.4 11.6 6.3 7.6 12.5 15.4 18.7 23.2 6.1 7.8 12.3 15.6 18.3 23.5 12.1 15.7 23.8 31.7 35.3 47.8 11.4 16.2 22.6 32.5 33.3 49.1 10.7 16.6 21.1 33.3 30.8 50.5 9.7 17.1 19 34.4 27.5 52 8.4 17.7 16.2 35.6 23.2 53.8 7 18.2 12.9 36.7 17.9 55.5 4.9 18.7 8.8 37.6 11.2 56.7 2.4 19.1 3.4 38.2 2.9 57.4z" />
  <path
    d="M3294.3 2360.3c-9.9 17.1-22.1 32.4-36.8 45.9 9.9-15 17.6-30.9 22.8-47.4 3.1-9.6 5.3-19.3 6.6-29.1 1.3-9.8 1.7-19.7 1-29.6-1.2-19.6-6.9-39.1-17.4-56.5-5.3-8.7-11.7-16.8-19.2-24.1-7.6-7.4-16-13.7-25.2-19.2-9.3-5.4-19.5-9.9-30.4-13-10.8-3.1-22.2-4.8-33.5-5.3-11.4-.5-22.8.2-33.9 1.8-11 1.7-21.8 4.3-32.3 7.6-10.7 3.6-25.4 11.3-37.1 17.9-2.1 1.1-.6 3.7 1.7 2.9q4.1-1.5 8.3-2.8c9.9-3.1 20-5.7 30-7.5 10-1.8 20.1-2.8 30-3 9.9 0 19.6.9 28.8 2.7 18.4 3.8 34.7 11.1 48.9 20.8 7 4.8 13.8 10.3 19.6 16.1 5.8 5.8 10.6 12.3 14.7 19.3 7.9 13.8 12.2 29.5 12.8 45.7.4 8.1-.1 16.3-1.4 24.5-1.3 8.2-3.3 16.3-6.1 24.3-10.9 32.2-32.9 62.4-62.5 84.3-7.5 5.4-15.3 10.4-23.5 14.6-8.3 4.3-16.8 8-25.7 11-8.8 2.9-17.9 5.2-27.1 6.7-2.3.3-4.4.7-6.7 1l-7.2.5c-4.8.5-9.7.6-14.6.8l-3.5.2h-3.7l-7.2-.1c-1.3 0-2.4 0-3.6-.1l-3.6-.2c-2.3-.2-4.7-.2-7.1-.5l-7-.8c-1.1-.1-2.3-.2-3.4-.4l-3.4-.5-6.8-1.2h-.1l-6.6-1.5-3.2-.7-.1-.1-3.2-.9c-2.1-.6-4.2-1.2-6.3-1.9h-.1c-4.1-1.6-8.3-2.9-12-4.8l-3-1.3-1.4-.7h-.1l-1.3-.8-5.6-3c-1.8-1.1-3.5-2.3-5.3-3.4-.8-.5-1.7-1.1-2.6-1.7l-4.8-3.7c-.9-.6-1.7-1.3-2.4-2l-4.5-4c-.8-.7-1.5-1.5-2.2-2.2l-2-2.2-2.1-2.2c-.7-.8-1.3-1.6-1.9-2.3-1.2-1.6-2.5-3.1-3.7-4.8l-3.4-4.9c-1.2-1.6-2.1-3.5-3.1-5.2-.9-1.7-2.1-3.4-2.9-5.2l-2.6-5.5c-.9-1.8-1.5-3.7-2.3-5.6-1.6-3.7-2.6-7.7-3.9-11.5-.6-2-.9-4-1.5-6-.4-2-1-3.9-1.3-6-.7-4-1.6-8.1-1.9-12.2-2.1-16.5-2-33.5-.3-50.7 1.7-16.4 3.1-33.2 7.3-49.6l.3-1.1 1.2-4 .6-2 .5-2.1 1.1-4.3c1-5.3 1.9-10.5 2.8-15.7.5-2.7.7-5.2 1-7.8l1-7.8.5-3.9c.1-1.4.2-2.6.3-4l.6-7.8c.2-2.6.5-5.2.5-7.8l.2-7.9c.6-20.9-.5-41.8-3.1-62.4-2.5-20.7-6.7-41.1-11.9-61-5.3-20-11.7-39.7-19-58.9-7.4-19.2-15.6-38-24.4-56.4-8.9-18.4-18.6-36.4-28.6-54.1-10.1-17.7-20.8-35-31.8-52.1-11-17-22.5-33.7-34.2-50.2-11.8-16.4-23.7-32.8-36.1-48.7-3-4.1-6.1-8-9.2-12l-9.4-11.9c-6.3-7.9-12.6-15.8-19-23.6-3.2-3.9-6.3-7.8-9.6-11.6l-9.9-11.7c-1.7-2-3.3-3.9-5-5.8l-5.1-5.7-10.3-11.4c-55.7-59.8-120.2-111.4-191.2-152-17.6-10.3-35.8-19.6-54.1-28.5l-13.9-6.4-7-3.2-6.8-3.1q-13.7-6.1-27.3-12.3c-36.3-16.5-72.3-33.5-107.9-51.3-17.9-8.8-35.5-18-53.1-27.2-17.5-9.4-34.9-18.9-52.1-28.8-17.1-10-34.2-20.1-50.7-30.8-4.2-2.6-8.3-5.4-12.4-8.1-2-1.3-4.2-2.7-6.1-4l-5.8-4.2c-7.7-5.5-15.1-11.5-22.3-17.7-14.2-12.5-26.9-26.7-37.9-41.9-1.3-2-2.8-3.8-4-5.8l-3.8-5.9-.6-.9-1.3-2.1-.6-1.1c40-10.4 82.2-9.7 122.2 2.3q.4.1.7.2c474.9 143.5 811.4 405.1 926.4 848.7 26.2 100.9 149.9 139.1 227.7 69.8 10.4-9.3 20.4-20 29.7-32 11.7 98.6-.3 186.7-36.7 259.3z"
    style="fill:#bb543d" />
  <path class="k"
    d="M1861.3 2710.1q-1.7-1.9-3.5-3.8c-6.5-7-14.7-12.8-23.6-16.9-8.9-4.1-18.5-6.3-28-6.8-4.7-.4-9.3-.2-14.1.2-4.7.4-9.4 1.2-14 2.4-4.7 1.3-9.3 3-13.6 5.1-4.4 2.1-8.5 4.5-12.4 7.3-7.7 5.5-14.3 12.2-19.9 19.1q-4.3 5.4-7.9 11-3.8-.3-7.6-.7 2.2-5.3 4.5-10.5c6.4-14.6 12.6-29 20.1-41.9 7.4-13 16.1-24.6 26.7-32.2 2.6-1.9 5.4-3.4 8.2-4.8 2.9-1.4 5.9-2.4 8.9-3.3q4.6-1.2 9.5-1.6c3.3-.3 6.6-.4 9.9-.1 6.5.4 12.7 1.9 18.4 4.4 5.6 2.6 10.7 6.2 15.1 10.9 8.8 9.3 14.9 22.2 18.6 36.2 1.9 7 3.3 14.2 4.2 21.6q.3 2.2.5 4.4zM2577.8 2499.1c-3.4-2.6-6.9-4.8-10.5-6.8-1.4-.7-2.7-1.4-4-2l-4.1-1.8c-2.5-1-5-2-7.6-3-5.1-1.8-10.4-3.5-15.8-4.7-5.3-1.4-10.8-2.4-16.4-3.1-5.6-.6-11.2-.9-16.9-.9-11.3.3-22.6 2.1-33.3 5.4-5.3 1.6-10.6 3.6-15.6 5.8q-7.5 3.3-14.6 7.3c-18.8 10.6-35.1 23.7-50.6 36.9-15.4 13.3-30.1 26.8-45.2 39.3-15 12.5-30.5 24.2-46.9 33.5-16.4 9.4-33.8 16.4-51.9 20-1.1.2-2.3.5-3.4.7l-3.4.5c-2.3.5-4.6.6-6.9 1-2.3.2-4.5.3-6.8.5-2.2.1-4.4.1-6.7.2-8.9-.1-17.8-1.3-26.5-3.6s-17.3-5.7-26-9.6c-6.8-3.1-13.7-6.6-20.7-10.2l-5.4-2.8c-9.6-5-27.9-12.4-41.6-13.4-17.4-1.2-46.2 9.4-61.1 13.1-8.3 2-16.7 4.6-25.1 8.6-8.4 3.9-16.6 9.2-23.6 16.3l-2.5 2.7-1.2 1.4-.6.7-.5.6-4 5.2-2 2.6c.9-12.2 3.4-24.2 7.9-35.4 2.8-6.6 5.9-13 9.9-19.1l2.9-4.6c.5-.7 1-1.5 1.6-2.2l1.7-2.2 3.3-4.3.4-.6.4-.4.7-.8 1.5-1.8c8.6-8.7 21.4-14.1 35.9-17.7 14.4-3.6 30.2-5.9 46.2-8.8 8.1-1.4 16.4-3.1 24.7-5.1 4.5 2.8 9 5.6 13.6 8.4 8.5 5.3 17.4 10.5 26.9 15.1 9.4 4.7 19.5 8.7 30.2 11.6 10.6 2.8 21.7 4.5 32.7 4.6 2.8 0 5.6 0 8.3-.1 2.8-.2 5.5-.3 8.2-.6 2.7-.4 5.4-.6 8.1-1.1l4-.6q1.9-.3 3.9-.7c21.2-4.1 41.5-12.2 59.9-22.6 18.4-10.4 35.1-22.9 50.9-35.8 15.8-13 30.7-26.6 45.7-39.3 15-12.6 30.2-24.6 46.4-33.5q6.1-3.4 12.3-6.1c4.1-1.8 8.3-3.3 12.6-4.5 8.4-2.6 17.1-3.9 25.8-4.1 8.7 0 17.4 1 26.1 3.3 4.3 1 8.6 2.5 12.9 4 2.1.8 4.2 1.7 6.3 2.5l2.9 1.3c.9.5 1.8 1 2.7 1.4 7 3.9 12.6 8.9 16.4 15.2 3.9 6.3 6.1 14.1 7.1 22.6.9 6.9.9 14.2.4 21.6zM2893.2 2357.5q-2.5 3.8-5.3 7.3c-11 14-25.1 25.9-40.8 36.3-15.7 10.5-32.9 19.5-50.6 28.6-8.9 4.6-17.9 9.2-27.1 14.3-8.5 4.8-17.2 9.9-25.7 16.2l-1.4-13.7-.1-.9v-.8l-.1-1.4c-.1-.9 0-1.7 0-2.5 0-1.7.2-3.3.5-4.9.6-3.1 1.7-6.1 3.4-9 3.3-5.9 9.1-11.6 16-16.9 7-5.2 15-10.1 23.4-14.7 8.4-4.7 17.2-9.1 26.1-13.7 17.9-9.2 36.2-18.7 53.9-30.4 9.4-6.3 18.7-13.3 27.4-21.1-.4 9.1-.3 18.2.4 27.3z" />
  <path class="l"
    d="M2306.9 1027.4c-51.7-12.4-103-19.7-153.3-21-93.4-2.5-180.2 84.6-137 191.3-1-2.1-2.1-4.1-3-6.2v-.1c-1.8-4.3-3.8-8.5-5.2-13-.8-2.1-1.6-4.3-2.3-6.5l-2-6.7-1-3.3-.7-3.4-1.6-6.7-1.1-6.9-.5-3.4c-.2-1.1-.3-2.3-.4-3.4l-.7-6.9c-.1-2.2-.1-4.5-.2-6.8-.7-18.4 2.3-36.7 8.2-54.1 5.7-17.5 14.8-33.8 26-48.8 11.2-14.9 24.6-28.4 39.5-40.3 7.3-6.1 14.9-11.3 22.9-16.2 1.9-1.2 4-2.2 6-3.4l3.1-1.6c1-.6 2-1.1 3.1-1.6l6.2-2.8c1.1-.5 2.1-1.1 3.2-1.5l3.2-1.1 6.5-2.5 6.5-1.9 3.3-1 3.4-.7 6.7-1.5 6.7-1c1.2-.1 2.3-.3 3.4-.4l3.4-.3c2.3-.1 4.6-.4 6.8-.4h6.9c9.1.3 18.2 1.1 27 3.3l3.4.7 3.3.9c2.1.7 4.4 1.3 6.5 2 4.3 1.6 8.7 3 12.8 5l3.2 1.3q1.5.7 3.1 1.5l4.2 2.2 1.9.9c2 1.1 4 2.3 6 3.5l3 1.7 2.9 1.9c6.2 4 12 8.5 17.6 13.3q2.2 1.8 4.4 3.7l5.1 4.8c1.7 1.6 3.2 3.4 4.9 5.1l2.4 2.5c.8.9 1.5 1.8 2.3 2.7l4.7 5.3 4.3 5.7c.7.9 1.5 1.8 2.2 2.8l2 2.9c1.3 2 2.8 3.9 4.1 5.9zM3053.4 1517.4c-181.9-208.9-458.6-414.7-728.4-485.4-4.2-14.1-10.4-27.7-18.4-40.3 301 85.6 564 297.6 746.8 525.7z" />
  <path class="i"
    d="M2582.5 2055.8c-23.9 0-23.9 37.1 0 37.1s23.9-37.1 0-37.1zM1647.6 2415.9c-23.9 0-23.9 37.2 0 37.2s23.9-37.2 0-37.2zM1814.4 2337.1c-23.9 0-23.9 37.1 0 37.1s23.9-37.1 0-37.1zM1759.8 2255.2c-23.9 0-23.9 37.1 0 37.1s23.9-37.1 0-37.1zM1622.4 1949.6c-23.9 0-23.9 37.1 0 37.1s23.9-37.1 0-37.1zM2129.8 1800.3c-23.9 0-23.9 37.1 0 37.1s23.9-37.1 0-37.1zM2335.8 1855.2c-23.9 0-23.9 37.1 0 37.1s23.9-37.1 0-37.1zM2317.9 1624.3c-23.9 0-24 37.2 0 37.2 23.9 0 23.9-37.2 0-37.2zM1146.8 2541.8q-1.3-4.7-4.7-8.2-1.9-1.5-3.8-2.9-4.3-2.5-9.4-2.5h-3q-3.8-.2-7.1 1.6-3.5 1.1-6 3.8-2.7 2.5-3.8 6-1.8 3.3-1.6 7.1l.6 5q1.3 4.7 4.8 8.1 1.9 1.5 3.7 2.9 4.4 2.6 9.4 2.6h3q3.9.1 7.2-1.6 3.5-1.1 6-3.9 2.7-2.5 3.8-5.9 1.8-3.3 1.6-7.2-.3-2.4-.7-4.9zM1248.2 2491.1c-3.6-3.3-8.1-5.4-13.1-5.4h-6.1c-4.7 0-9.7 2.1-13.1 5.4q-2.7 2.6-3.8 6-1.8 3.3-1.6 7.2c.2 4.8 1.8 9.7 5.4 13.1 3.6 3.3 8.1 5.4 13.1 5.4h6.1c4.8 0 9.8-2 13.1-5.4q2.7-2.5 3.9-6 1.7-3.3 1.6-7.1c-.3-4.8-1.8-9.8-5.5-13.2zM1887.2 2346.1c-16.3 0-16.3 25.2 0 25.2 16.2 0 16.3-25.2 0-25.2zM2166.2 1863.8c-16.2 0-16.3 25.3 0 25.3s16.3-25.3 0-25.3zM1883.1 1967.5c-16.3 0-16.3 25.2 0 25.2 16.2 0 16.3-25.2 0-25.2zM1204.8 2540.2c-16.3 0-16.3 25.2 0 25.2 16.2 0 16.2-25.2 0-25.2zM1347.3 2427.9c-16.2 0-16.2 25.3 0 25.3 16.3 0 16.3-25.3 0-25.3zM1898.9 1908c-16.3 0-16.3 25.2 0 25.2 16.2 0 16.2-25.2 0-25.2zM1877.4 1876.4c-16.2 0-16.2 25.3 0 25.3 16.3 0 16.3-25.3 0-25.3z" />
  <path class="m"
    d="M994.4 2134.5c-2.9 2.7-7.3-.9-5.1-4.2 5.1-7.5 10.8-14.7 17-21.5 12.2-13.4 26.2-25.1 41.2-35.4 30-20.5 63.4-35.3 97.9-45.9 34.4-10.5 70.1-16.8 105.8-19 17.8-1.1 35.7-1.3 53.5-.3 9.1.5 18.1 1.2 27.1 2.3 3.9.4 3.8 6.1-.1 6.5-26.4 2.6-52.6 5.8-78.4 10.1-34.3 5.6-68.1 13.2-101 23.2-32.9 10-65 22.5-95 39-22.7 12.3-44 27.1-62.9 45.2zM1670.1 1496c-2.9 2.8-7.3-.8-5.1-4.1 5.1-7.6 10.8-14.8 16.9-21.5 12.2-13.5 26.3-25.1 41.2-35.4 30-20.6 63.5-35.4 97.9-45.9 34.5-10.6 70.1-16.8 105.8-19.1 17.9-1.1 35.8-1.2 53.6-.3 9 .5 18.1 1.2 27 2.3 4 .5 3.9 6.2 0 6.6-26.5 2.6-52.6 5.7-78.4 10-34.3 5.6-68.1 13.2-101 23.2-32.9 10.1-65 22.6-95.1 39-22.6 12.3-43.9 27.1-62.8 45.2zM1896 2128.9c-2.8 2.7-7.2-.9-5-4.2 5-7.5 10.8-14.7 16.9-21.5 12.2-13.4 26.3-25.1 41.2-35.4 30-20.5 63.5-35.4 97.9-45.9 34.5-10.5 70.1-16.8 105.8-19 17.9-1.1 35.8-1.3 53.6-.4 9 .5 18 1.3 27 2.4 3.9.4 3.9 6.1 0 6.5-26.5 2.6-52.6 5.7-78.5 10.1-34.3 5.6-68 13.2-101 23.2-32.8 10-64.9 22.5-95 39-22.6 12.3-43.9 27.1-62.9 45.2z" />
  <path class="g"
    d="M1936.5 1454.4c-19.1 0-19.2 29.7 0 29.7 19.1 0 19.1-29.7 0-29.7zM1852.3 1484c-19.1 0-19.1 29.7 0 29.7s19.1-29.7 0-29.7zM1126.7 2118.6c-19.1 0-19.2 29.7 0 29.7 19.1 0 19.1-29.7 0-29.7zM1235.9 2157.3c-19.1 0-19.2 29.7 0 29.7 19.1 0 19.1-29.7 0-29.7zM1263.2 2109.5c-19.2 0-19.2 29.7 0 29.7 19.1 0 19.1-29.7 0-29.7zM2088.9 2136.8c-19.1 0-19.2 29.7 0 29.7 19.1 0 19.1-29.7 0-29.7zM2145.7 2070.9c-19.1 0-19.1 29.7 0 29.7 19.2 0 19.2-29.7 0-29.7zM1809.1 1454.3c-13.4 0-13.4 20.8 0 20.8s13.4-20.8 0-20.8zM1891 1495.2c-10.5 0-10.5 16.4 0 16.4s10.5-16.4 0-16.4zM1213.1 2082.1c-10.5 0-10.5 16.3 0 16.3s10.5-16.3 0-16.3zM2025.2 2091.2c-10.5 0-10.5 16.3 0 16.3s10.5-16.3 0-16.3zM2086.6 2098c-10.5 0-10.5 16.4 0 16.4s10.5-16.4 0-16.4z" />
  <path class="a"
    d="M881.4 3040.2c3.3.4 3.6 4.3.3 4.8h-.4c-3.1.3-6.4.3-9.6-.2-3.3-.5-6.6-1.5-9.6-2.8-3-1.4-5.7-3.2-8.1-5.2-2.4-1.9-4.5-4.2-6.3-6.4-3.6-4.6-6.2-9.6-8.2-14.6-3.8-10-5.1-20.3-5.1-30.5-.1-2.5.1-5.1.3-7.5.1-2.4.3-4.9.5-7.3.5-4.8 1.2-9.6 1.9-14.4 2.9-19.1 7-37.7 11.2-56.4l6.4-27.9c1.1-4.7 2.1-9.5 3.2-14.3.7-2.7 5.5-2.5 5.8.3 1.8 14.6 1.8 29.3 1 43.8-1.1 19.2-3.9 38.3-6.7 57q-1.2 7-2.1 13.9c-.7 4.6-1.2 9.3-1.6 13.7-.8 8.9-.5 17.9 1.2 26.5 1.9 8.4 5.2 16.8 12.3 22.3 1.8 1.3 3.8 2.4 6.1 3.3 2.2.9 4.7 1.4 7.3 1.8q.1.1.2.1z" />
  <path class="n"
    d="M2634.1 1995.5c-64.7-27.2-139.6-41.3-204.3-14.2l10.2-79.4c71.1-17.9 135.2-16.3 194.1 0z" />
  <path fill-rule="evenodd" class="f"
    d="M2634.1 2005.8c-1.3 0-2.7-.2-4-.8-52.4-22-129.1-42.3-196.3-14.1-3.4 1.5-7.4 1-10.3-1.3-3-2.2-4.5-5.9-4-9.6l10.2-79.4c.5-4.2 3.6-7.7 7.8-8.8 69.1-17.4 136.2-17.4 199.4.1 4.5 1.3 7.6 5.4 7.6 10v93.6c0 3.4-1.7 6.7-4.6 8.6-1.8 1.2-3.8 1.7-5.8 1.7zm-127.8-49.4c42.4 0 83.6 10.9 117.4 23.7v-70.2c-55.9-14.2-113.1-14-174.3.4l-7.1 55.4c21.1-6.6 42.7-9.3 64-9.3z" />
  <path class="n"
    d="M1426.2 2434.2c59.3-26 116.3-67.1 139.2-127.6l46.6 57.2c-33.1 58.9-74.9 100.8-123.3 129.8z" />
  <path fill-rule="evenodd" class="f"
    d="M1488.8 2504c-2.6 0-5.2-1-7.2-2.9l-62.5-59.4c-2.5-2.4-3.7-5.9-3.1-9.3.6-3.4 2.9-6.3 6.1-7.7 47.8-21.1 109.9-59.3 133.6-121.8 1.3-3.5 4.4-6 8.1-6.6 3.6-.6 7.3.8 9.7 3.7l46.6 57.3c2.7 3.3 3.1 7.9 1 11.6-32.3 57.5-75.1 102.4-127 133.6-1.7 1-3.5 1.5-5.3 1.5zm-44.3-66.8 45.6 43.3c44.5-28.2 80.4-66.1 109.3-115.6l-31.3-38.6c-27 54-78.9 89.2-123.6 110.9z" />
  <path class="n"
    d="M1539.2 1829.1c59.5-21.4 126.7-28.9 180.9 3.7l-1.2-79.9c-60.6-24-117.1-28-170.5-16.9z" />
  <path fill-rule="evenodd" class="f"
    d="M1720.1 1843.2c-1.9 0-3.7-.5-5.4-1.5-55.5-33.4-124.2-20-172-2.8-3.3 1.2-7.1.6-9.9-1.6-2.8-2.2-4.3-5.7-3.9-9.2l9.2-93.1c.4-4.5 3.7-8.2 8.2-9.1 57.6-12.1 117-6.2 176.5 17.3 3.9 1.6 6.5 5.3 6.5 9.5l1.2 80c0 3.7-1.9 7.2-5.2 9.1-1.6.9-3.4 1.4-5.2 1.4zm-85.1-42.9c24.9 0 50.4 4.2 74.5 15.2l-.9-55.4c-51.4-19.3-100.9-24.3-150.6-15.4l-6.9 69.4c25.1-7.8 54.1-13.8 83.9-13.8z" />
  <path class="n"
    d="M2241.1 1844.2c-25.7-52.3-64.8-102.1-120.2-120.5l49.8-44.1c54.3 27.6 93.6 63.7 121.5 106.1z" />
  <path fill-rule="evenodd" class="f"
    d="M2241.1 1854.6q-.7 0-1.4-.1c-3.4-.5-6.4-2.6-7.9-5.7-20.7-42.1-57.3-96.3-114.1-115.2-3.6-1.2-6.2-4.2-6.9-7.8-.8-3.6.5-7.4 3.3-9.9l49.7-44.1c3.2-2.8 7.8-3.4 11.7-1.5 53.1 27 95.3 63.9 125.4 109.7 2.5 3.9 2.2 9-.9 12.5l-51.1 58.5c-2 2.3-4.8 3.6-7.8 3.6zm-100.6-134.3c48.5 22.3 81.7 66.6 102.8 105.5l35.8-40.9c-26.8-38.4-61.9-68.9-106.8-92.8z" />
</svg>